<?xml version="1.0" standalone="no"?>
<!DOCTYPE svg PUBLIC "-//W3C//DTD SVG 20010904//EN"
 "http://www.w3.org/TR/2001/REC-SVG-20010904/DTD/svg10.dtd">
<svg version="1.0" xmlns="http://www.w3.org/2000/svg"
 width="979.000000pt" height="979.000000pt" viewBox="0 0 979.000000 979.000000"
 preserveAspectRatio="xMidYMid meet">
<metadata>
Created by potrace 1.14, written by Peter Selinger 2001-2017
</metadata>
<g transform="translate(0.000000,979.000000) scale(0.100000,-0.100000)"
fill="#000000" stroke="none">
<path d="M4500 9388 c-14 -6 -77 -45 -140 -87 -124 -81 -284 -230 -296 -275
-3 -14 -13 -26 -21 -26 -9 0 -33 -19 -55 -42 -24 -25 -38 -35 -33 -23 18 51
34 180 35 278 0 108 0 109 -31 139 -29 30 -32 30 -102 26 -94 -6 -130 -26
-255 -137 -75 -68 -107 -105 -127 -146 -15 -31 -32 -58 -36 -61 -39 -24 -202
-353 -245 -494 -23 -75 -76 -234 -79 -238 -2 -2 -1 25 2 60 7 79 -13 314 -31
388 -37 145 -45 165 -80 198 -30 26 -44 32 -82 32 -41 0 -50 -5 -102 -54 -56
-53 -78 -91 -172 -288 -53 -112 -101 -323 -106 -463 -2 -66 -8 -142 -14 -170
-5 -27 -9 -79 -10 -115 l-2 -65 -13 45 c-21 75 -64 149 -95 165 -16 8 -47 15
-69 15 -68 0 -94 -33 -145 -185 -60 -175 -71 -258 -71 -570 l0 -260 -27 27
c-17 15 -28 37 -28 52 0 34 -30 93 -68 134 -56 60 -136 37 -193 -55 -19 -30
-23 -57 -30 -176 -6 -121 -5 -149 12 -212 10 -40 16 -87 13 -106 -7 -44 51
-271 101 -399 54 -139 149 -317 203 -384 84 -104 87 -124 13 -87 -25 13 -59
21 -91 21 -43 0 -56 -5 -80 -28 -23 -23 -29 -41 -35 -95 -5 -42 -3 -85 5 -119
18 -76 69 -218 91 -254 10 -17 19 -38 19 -47 0 -15 75 -133 174 -272 31 -44
98 -119 149 -167 l92 -87 -40 -1 c-50 -1 -117 -30 -139 -61 -9 -13 -16 -39
-16 -58 0 -30 9 -44 58 -91 61 -58 227 -150 270 -150 13 0 47 -11 75 -24 29
-14 69 -28 89 -31 l37 -7 -24 -38 c-59 -94 -68 -148 -30 -185 37 -38 80 -33
144 15 43 33 61 40 98 40 33 0 42 -3 36 -13 -47 -74 -68 -96 -115 -117 -54
-24 -106 -72 -154 -141 -58 -84 -29 -199 51 -199 17 0 41 7 53 16 13 9 26 14
28 11 3 -3 10 -37 16 -76 l10 -71 -90 -88 c-50 -48 -95 -98 -100 -112 -5 -14
-13 -61 -17 -105 -6 -70 -3 -91 18 -160 14 -44 30 -100 37 -125 17 -66 120
-165 181 -175 80 -12 77 -8 81 -95 3 -84 21 -123 67 -146 13 -7 31 -26 42 -43
27 -45 75 -71 131 -71 41 0 48 -3 53 -23 3 -12 -5 -51 -19 -89 -45 -120 -56
-188 -55 -351 0 -84 6 -172 12 -196 15 -56 53 -86 107 -85 22 1 40 -2 40 -6 0
-4 11 -24 25 -44 14 -20 28 -49 31 -64 14 -59 66 -90 121 -71 35 11 63 51 63
89 0 11 10 35 23 51 28 39 28 104 -1 154 -21 34 -22 49 -22 251 0 141 3 213
10 209 6 -3 10 -16 10 -29 0 -30 40 -144 80 -231 37 -80 94 -145 126 -145 12
0 24 -6 27 -13 3 -7 6 -193 6 -413 l2 -399 -32 -30 c-49 -46 -61 -84 -48 -147
8 -38 21 -62 45 -84 18 -18 36 -44 40 -58 8 -32 58 -76 88 -76 33 0 65 27 82
70 9 21 27 46 41 55 13 9 33 35 44 58 34 75 21 135 -38 188 l-29 26 -1 304 0
305 28 -28 c36 -36 75 -36 125 0 72 52 85 56 194 59 58 1 114 4 124 5 16 2 21
-5 28 -37 5 -22 22 -82 39 -132 33 -99 60 -133 106 -133 24 0 25 -2 19 -48 -4
-26 -17 -92 -29 -147 -28 -129 -30 -327 -5 -395 9 -25 19 -61 22 -80 16 -94
82 -179 154 -199 40 -12 101 16 125 57 59 103 86 301 52 388 -9 25 -18 64 -20
88 -2 38 -41 162 -65 206 -7 13 -7 21 0 25 5 3 10 38 10 77 l0 71 41 -46 c50
-57 99 -75 153 -57 51 17 70 49 63 108 -4 32 -1 53 9 66 8 11 14 34 14 50 l0
31 20 -25 c11 -14 32 -51 46 -82 43 -93 108 -117 158 -57 23 27 96 230 96 266
0 11 8 13 33 7 17 -4 73 -7 122 -8 82 -1 95 -4 139 -31 26 -16 59 -36 72 -43
21 -12 24 -20 24 -75 0 -55 -4 -67 -31 -100 -17 -20 -34 -50 -39 -66 -12 -43
6 -111 39 -146 16 -16 45 -47 64 -67 28 -30 42 -38 70 -38 38 0 97 40 97 66 0
7 13 28 29 46 63 72 65 165 6 217 -29 25 -35 37 -35 71 0 38 2 40 31 40 17 0
39 5 50 10 43 23 91 172 87 269 -2 43 2 55 24 78 38 40 103 184 129 286 l22
86 25 -19 c14 -11 35 -20 47 -20 55 0 53 -36 -20 -375 -14 -66 -24 -133 -22
-150 3 -19 -6 -52 -23 -90 -44 -98 -59 -153 -75 -278 -33 -262 -11 -460 59
-525 33 -29 41 -32 101 -32 82 0 105 12 181 93 46 50 68 83 92 143 50 127 74
238 84 384 4 74 11 164 14 200 3 36 -2 133 -11 215 -9 83 -23 220 -30 305 -8
85 -22 177 -30 204 -23 75 -20 110 11 126 14 8 39 31 56 52 25 32 36 38 67 38
55 0 89 39 102 120 5 35 7 75 4 91 -6 24 -2 28 29 39 20 6 62 37 95 68 50 49
60 65 71 112 6 30 20 79 31 108 13 36 19 79 19 135 -1 129 -9 154 -79 217 -68
62 -67 60 -50 187 12 80 12 82 33 68 53 -38 118 -4 131 68 9 46 -5 84 -58 154
-35 47 -119 113 -143 113 -6 0 -29 27 -52 60 l-41 60 35 0 c41 0 66 -12 112
-51 43 -38 89 -39 123 -3 35 37 30 89 -14 163 -36 60 -37 71 -7 71 8 0 32 8
52 19 21 10 58 24 84 30 55 14 181 78 244 124 50 37 90 90 90 119 0 57 -73
117 -142 118 -15 0 -29 4 -33 9 -3 5 29 40 71 78 98 88 303 370 320 440 4 15
13 35 21 44 15 18 63 154 88 251 17 63 13 163 -6 200 -26 48 -131 63 -199 28
-68 -35 -67 -24 4 63 119 145 246 429 296 661 12 55 20 115 18 135 -3 20 3 62
13 94 12 41 17 94 18 185 1 165 -13 215 -74 271 -49 45 -92 54 -133 25 -31
-22 -82 -113 -82 -149 -1 -20 -10 -37 -28 -51 l-27 -21 -1 266 c-2 347 -18
443 -112 664 -29 70 -73 89 -155 66 -42 -11 -77 -58 -108 -144 l-18 -50 -1 55
c-1 30 -6 75 -11 100 -6 25 -10 82 -9 127 2 88 -5 129 -52 323 -29 119 -56
191 -78 205 -5 3 -10 16 -10 28 0 28 -72 160 -118 216 -45 55 -87 81 -134 81
-110 0 -171 -165 -185 -502 -5 -133 -8 -155 -19 -140 -7 9 -14 29 -14 43 0 38
-79 254 -145 399 -60 133 -93 192 -137 245 -16 18 -28 39 -28 47 0 41 -194
228 -284 275 -94 48 -206 40 -237 -18 -21 -40 -22 -168 -1 -279 11 -58 23
-114 27 -125 4 -11 -12 1 -37 28 -25 26 -50 47 -55 47 -6 0 -14 11 -17 25 -10
40 -182 206 -263 253 -40 23 -75 47 -78 52 -4 6 -33 24 -65 40 -76 38 -172 42
-214 9 -41 -32 -66 -90 -66 -152 0 -63 59 -245 120 -372 53 -109 250 -401 345
-512 25 -28 45 -54 45 -57 0 -3 -11 -16 -24 -29 -12 -13 -25 -27 -27 -33 -2
-5 -18 -21 -34 -36 l-31 -28 -59 16 c-33 8 -80 22 -105 30 -25 8 -62 14 -83
14 -37 0 -38 0 -23 22 9 12 16 38 16 58 1 19 7 46 15 60 35 62 5 137 -65 161
-16 6 -29 14 -29 17 7 49 -32 102 -74 102 -13 0 -36 -9 -50 -21 -22 -17 -32
-18 -60 -11 -23 7 -43 6 -63 -3 -39 -16 -54 -36 -61 -82 -3 -21 -14 -47 -24
-59 -10 -11 -20 -34 -22 -51 -2 -17 -13 -43 -25 -58 -13 -16 -22 -42 -22 -61
0 -31 -3 -34 -29 -34 -43 0 -44 5 -50 148 -1 43 -40 82 -80 82 -58 0 -217
-165 -237 -247 -5 -17 -13 -23 -33 -23 -14 0 -57 -11 -96 -25 -38 -13 -77 -25
-85 -25 -9 0 -45 30 -82 68 l-66 67 74 94 c41 52 74 97 74 101 0 4 22 35 50
69 46 58 73 100 158 246 19 33 50 103 69 155 19 52 42 115 51 140 22 60 21
175 -1 217 -30 56 -62 73 -136 72 -36 0 -77 -5 -91 -11z m138 -130 c10 -38 7
-54 -32 -172 -72 -218 -125 -308 -377 -636 -42 -54 -84 -106 -93 -115 -14 -15
-16 -15 -16 -1 0 9 6 16 13 16 12 0 32 28 78 116 29 54 74 202 65 212 -3 3 -6
-2 -6 -11 0 -17 -34 -32 -50 -22 -5 3 -10 15 -10 26 0 10 -4 19 -10 19 -5 0
-10 -4 -10 -8 0 -5 -6 -9 -14 -9 -8 0 -12 6 -8 15 7 19 -26 -13 -51 -48 -10
-15 -17 -19 -16 -10 0 16 38 74 107 164 48 63 57 88 12 36 -25 -30 -30 -32
-30 -14 0 11 -5 25 -11 31 -6 6 -13 44 -15 84 l-4 72 81 79 c64 62 84 77 94
68 22 -18 55 -2 55 25 0 26 15 41 25 25 19 -30 74 11 61 45 -7 18 69 54 115
55 35 0 37 -2 47 -42z m942 24 c28 -13 36 -24 38 -49 4 -42 27 -61 53 -45 27
17 39 15 39 -8 0 -20 39 -38 58 -26 6 3 46 -31 91 -76 70 -70 81 -85 76 -107
-3 -14 -7 -48 -10 -74 -3 -26 -10 -58 -16 -69 -11 -21 -12 -21 -40 13 -47 56
-33 23 19 -44 110 -143 155 -223 87 -153 -40 41 -43 43 -41 19 0 -10 -5 -17
-12 -15 -8 1 -16 -6 -19 -17 -9 -37 -39 -35 -61 4 -10 17 -11 15 -5 -15 3 -19
9 -39 13 -45 4 -5 11 -26 15 -45 8 -38 43 -103 72 -135 30 -33 66 -86 61 -91
-21 -20 -350 430 -429 585 -38 77 -119 308 -119 342 0 10 5 30 12 44 9 20 18
25 47 25 20 -1 52 -9 71 -18z m-1690 -69 c0 -145 -43 -306 -122 -462 -67 -134
-68 -142 -19 -180 65 -51 85 -43 144 59 27 47 76 122 110 168 l61 82 19 -40
c11 -22 32 -51 47 -63 l27 -23 -24 -30 c-24 -29 -170 -259 -193 -302 -9 -19
-9 -27 3 -40 9 -9 16 -20 16 -25 2 -33 18 -60 51 -86 41 -33 64 -39 76 -20 9
15 43 -28 44 -54 0 -32 19 -57 38 -50 15 6 15 5 3 -10 -12 -15 -11 -17 7 -17
12 0 24 5 28 12 4 7 3 8 -4 4 -8 -5 -12 1 -12 16 0 13 -3 33 -6 46 -10 35 17
19 67 -41 24 -28 39 -48 33 -44 -6 3 -19 -2 -29 -13 -9 -10 -23 -16 -30 -13
-11 4 -12 -2 -5 -27 8 -26 7 -31 -6 -26 -31 12 8 -80 51 -119 28 -25 42 -100
20 -109 -8 -3 -15 -1 -15 4 0 6 -7 10 -15 10 -8 0 -15 8 -15 18 0 13 -2 14 -9
3 -7 -11 -14 -10 -40 8 -17 12 -31 20 -31 17 0 -3 -9 3 -20 14 -11 11 -25 20
-31 20 -6 0 -3 -7 6 -16 11 -12 13 -20 6 -27 -6 -6 -11 -15 -11 -21 0 -5 3 -6
6 -3 7 7 37 -28 47 -56 4 -9 18 -22 32 -27 33 -13 30 -41 -5 -51 l-25 -7 25
-1 c14 -1 32 -7 41 -14 23 -17 51 -86 44 -108 -7 -20 -49 -31 -64 -16 -8 8
-11 6 -11 -4 0 -8 5 -20 12 -27 16 -16 -3 -35 -26 -26 -11 4 -15 13 -11 25 4
11 2 19 -4 19 -5 0 -8 9 -6 20 4 21 -3 30 -53 70 -18 14 -32 31 -32 37 0 7 -8
22 -17 33 -10 11 -18 36 -18 54 0 30 -8 41 -67 89 -37 30 -65 57 -62 60 9 9
-16 48 -27 42 -5 -4 -9 1 -9 9 0 9 -9 33 -20 53 -13 24 -16 39 -9 43 11 7 -8
60 -22 60 -4 0 -22 14 -40 31 -44 41 -97 51 -57 11 10 -10 10 -14 0 -21 -20
-12 -21 -43 -2 -71 29 -43 30 -48 17 -62 -7 -7 -18 -26 -25 -43 -12 -26 -12
-31 5 -45 11 -8 18 -21 16 -27 -2 -6 5 -14 16 -18 23 -7 90 -65 76 -65 -5 0
-3 -4 5 -10 12 -7 12 -13 1 -33 -7 -14 -11 -30 -7 -35 10 -17 -11 -23 -24 -7
-14 17 -34 9 -26 -11 3 -7 8 -42 11 -78 6 -57 4 -65 -14 -78 -18 -13 -21 -24
-18 -76 2 -36 -2 -64 -8 -67 -5 -2 -2 -10 8 -17 10 -7 28 -21 39 -30 20 -18
19 -18 -40 -18 -33 0 -64 -5 -67 -10 -4 -6 -3 -10 2 -9 4 1 26 -1 48 -6 100
-20 131 -65 45 -65 -62 0 -65 -14 -5 -29 25 -6 45 -13 45 -16 0 -2 -25 -12
-55 -20 -30 -9 -55 -22 -55 -29 0 -34 179 -66 212 -38 10 8 38 10 84 7 46 -4
62 -2 49 4 -18 8 -16 11 20 27 29 13 61 17 119 16 79 -2 79 -2 61 18 -10 11
-13 20 -7 20 6 0 17 3 26 6 11 4 14 0 11 -16 -3 -14 0 -20 8 -17 7 3 11 10 9
16 -1 6 9 17 23 23 14 6 25 15 25 19 0 5 8 5 17 2 12 -5 15 -2 10 10 -4 10 -1
17 6 17 8 0 7 3 -2 9 -12 8 -12 12 -2 25 11 13 11 16 -2 16 -8 0 -21 7 -28 16
-11 14 -10 18 6 27 24 14 26 14 65 16 19 1 30 6 30 16 0 8 5 15 10 15 6 0 10
-4 10 -10 0 -5 6 -10 14 -10 7 0 25 -9 39 -20 14 -11 31 -20 39 -20 10 0 10 2
-2 10 -11 7 -3 14 33 29 35 15 47 26 47 41 0 28 22 21 27 -8 5 -36 50 -137 59
-133 9 4 11 1 48 -76 14 -29 22 -61 19 -72 -6 -23 -18 -27 -28 -11 -3 6 -10
10 -15 10 -10 0 -1 -62 10 -70 14 -10 59 -103 54 -112 -3 -5 -2 -8 3 -7 18 3
36 -1 30 -7 -3 -4 8 -17 26 -29 18 -12 31 -27 29 -34 -1 -7 2 -10 6 -7 5 3 18
-5 28 -19 10 -13 21 -22 26 -19 4 3 8 1 8 -5 0 -5 10 -13 22 -17 12 -3 28 -13
36 -21 8 -8 17 -11 20 -8 3 3 -51 63 -121 133 l-127 127 130 130 c83 83 125
132 118 136 -7 4 -19 4 -29 -1 -9 -5 -20 -6 -24 -2 -5 4 -5 2 -2 -4 8 -13 -16
-37 -26 -27 -4 3 -7 2 -7 -4 0 -5 -6 -10 -13 -10 -7 0 -28 -10 -45 -23 l-32
-24 -30 35 c-16 18 -29 43 -30 53 0 11 -11 33 -23 50 -35 45 -78 136 -83 172
-3 24 0 30 14 29 9 0 22 -4 28 -7 13 -9 44 -4 52 8 9 12 72 16 72 4 0 -5 12
-9 28 -8 15 1 35 -2 45 -6 26 -12 21 23 -8 57 -28 31 -32 33 -37 12 -3 -14 -6
-14 -26 1 -15 11 -20 20 -14 27 6 7 11 20 13 31 4 16 7 15 34 -10 23 -22 40
-28 73 -28 28 0 42 -5 42 -13 0 -11 4 -11 20 -1 16 10 24 10 41 0 15 -10 24
-10 34 -2 8 6 22 10 33 8 10 -2 34 9 53 23 51 39 60 42 53 24 -4 -8 -1 -21 5
-29 11 -14 6 -21 -28 -41 -11 -6 -13 -4 -8 8 3 10 2 17 -2 17 -14 0 -61 -59
-61 -76 0 -16 26 -19 35 -4 3 5 21 7 40 5 20 -3 35 0 35 5 0 6 7 10 15 10 8 0
15 -4 15 -10 0 -5 7 -7 15 -4 10 4 15 0 15 -13 0 -11 3 -22 6 -26 9 -8 37 21
30 31 -3 5 5 8 17 7 43 -3 24 -80 -50 -197 -12 -21 -23 -42 -23 -48 0 -16 -50
-79 -71 -91 -14 -7 -17 -6 -13 5 3 9 -11 21 -43 37 -26 12 -52 29 -56 36 -4 7
-19 13 -32 13 -22 0 -24 -3 -19 -30 6 -26 -1 -37 -72 -106 l-79 -76 69 58 c55
46 68 54 64 36 -3 -12 -2 -20 2 -17 5 3 11 2 14 -3 2 -4 -25 -37 -61 -72 -36
-36 -68 -60 -70 -54 -2 6 -15 9 -31 6 -25 -5 -26 -4 -9 12 24 24 21 33 -3 11
-11 -10 -20 -25 -20 -34 0 -22 181 -201 203 -201 13 0 17 5 13 16 -3 8 -2 12
4 9 5 -3 23 7 40 24 17 16 27 31 23 33 -4 3 -3 4 3 2 5 -1 32 18 59 42 86 78
62 47 -50 -66 -60 -60 -105 -113 -101 -117 4 -4 14 0 21 10 7 10 15 17 17 15
10 -9 82 47 114 91 21 28 43 51 49 51 6 0 15 8 20 19 6 10 18 33 28 51 26 44
29 70 12 87 -21 20 -19 45 8 96 13 24 26 54 30 66 3 13 13 21 26 21 15 0 21 6
21 21 0 11 6 30 13 42 6 12 17 40 23 62 l12 40 7 -32 c5 -24 12 -31 26 -28 19
4 44 -14 51 -37 3 -9 11 -8 31 5 15 9 38 24 52 33 20 13 24 14 20 2 -4 -9 2
-14 17 -15 32 -3 98 -36 95 -48 -2 -5 -13 -11 -25 -13 -11 -2 -24 -13 -28 -24
-7 -24 23 -57 73 -77 18 -7 30 -17 27 -22 -10 -16 46 -29 124 -28 85 1 141
-19 150 -53 3 -13 7 -16 12 -8 11 18 87 25 105 10 24 -20 117 -14 173 11 46
20 38 33 -38 62 l-35 14 42 13 c49 15 47 30 -3 30 -41 0 -56 24 -28 45 10 7
43 16 71 20 74 9 66 24 -14 27 l-68 3 39 24 c22 14 34 27 28 29 -7 2 -8 11 -2
27 6 16 5 25 -3 28 -9 3 -9 7 1 19 19 23 5 67 -24 74 -19 5 -21 9 -14 30 5 13
6 24 2 24 -4 1 4 10 17 20 16 14 19 20 8 20 -11 0 -13 10 -9 45 4 42 -7 60
-23 35 -9 -14 -28 -12 -22 3 2 6 -5 22 -16 34 -18 20 -18 23 -4 29 9 3 15 10
12 15 -3 4 18 24 47 44 29 19 49 35 45 35 -4 0 -1 13 8 29 16 33 9 67 -19 90
-16 14 -23 36 -8 27 8 -5 46 49 48 69 0 6 -5 20 -13 32 -7 12 -10 29 -7 37 9
23 -7 19 -36 -9 -14 -13 -40 -38 -57 -54 -29 -26 -48 -71 -24 -57 13 8 8 -14
-9 -44 -8 -14 -13 -29 -12 -34 2 -5 0 -16 -4 -25 -4 -9 -8 -19 -8 -22 -2 -13
-64 -57 -103 -72 -41 -16 -41 -16 -58 9 -16 25 -16 26 4 19 20 -6 21 -6 3 25
-15 29 -20 31 -54 26 -45 -7 -50 7 -17 48 11 14 17 30 14 36 -8 14 -45 13 -45
-1 0 -6 7 -9 15 -5 8 3 15 1 15 -4 0 -11 -11 -13 -34 -4 -9 3 -16 12 -16 20 0
8 -7 14 -15 14 -12 0 -13 4 -3 25 10 22 12 23 23 8 16 -21 43 -11 55 22 5 14
17 25 25 25 13 0 12 4 -5 22 -21 23 -26 54 -11 76 6 11 14 8 36 -12 22 -20 31
-23 41 -15 21 17 17 49 -5 49 -18 0 -19 2 -6 28 8 15 12 34 10 44 -4 11 4 20
25 29 16 8 30 21 30 30 0 27 -121 234 -191 328 l-48 64 24 19 c13 10 33 39 46
64 18 39 24 44 33 31 6 -8 36 -49 66 -91 58 -81 99 -148 127 -206 23 -46 43
-70 60 -70 8 0 32 15 53 33 55 45 53 72 -14 205 -29 59 -65 143 -79 187 -35
107 -60 259 -52 313 l7 44 36 -7 c62 -11 106 -41 201 -133 l91 -88 0 -51 c0
-54 15 -77 47 -71 13 2 28 -13 53 -57 20 -33 42 -76 50 -95 7 -19 28 -65 47
-102 47 -95 113 -298 113 -347 0 -26 5 -44 14 -47 7 -3 21 -33 29 -67 38 -143
101 -438 112 -521 11 -83 15 -92 48 -123 38 -34 52 -39 75 -25 17 12 20 325 3
410 -6 34 -16 123 -21 197 -5 74 -14 153 -21 177 -31 115 36 551 83 540 25 -6
78 -70 114 -137 l36 -69 -22 -73 c-12 -41 -19 -80 -16 -88 10 -27 55 -18 75
15 l18 30 31 -127 c58 -237 59 -253 27 -373 -34 -131 -36 -163 -12 -168 10 -2
27 4 38 14 19 17 19 14 19 -162 0 -100 -7 -231 -15 -294 -8 -63 -19 -164 -25
-225 -6 -60 -19 -147 -30 -192 -16 -69 -18 -91 -8 -145 6 -35 18 -72 28 -83
10 -11 21 -37 25 -57 8 -42 26 -61 51 -56 26 5 34 48 40 203 3 77 17 217 31
310 13 94 27 188 30 210 8 68 12 73 32 47 12 -16 25 -23 42 -20 37 5 35 43 -5
122 -39 76 -39 59 0 226 20 85 55 160 75 160 11 0 25 -24 44 -77 50 -143 65
-222 76 -408 13 -203 7 -355 -17 -495 -17 -103 -81 -301 -114 -357 -12 -20
-20 -43 -18 -53 3 -15 -71 -174 -78 -168 -1 2 15 64 36 138 22 74 51 198 65
275 26 143 49 419 43 535 l-3 65 -8 -60 c-23 -185 -42 -287 -48 -259 -3 16
-11 40 -18 52 l-13 24 -22 -31 c-16 -21 -26 -27 -33 -20 -12 12 -18 -1 -27
-61 -3 -19 -14 -61 -26 -92 -11 -31 -24 -96 -30 -145 -5 -48 -16 -119 -24
-156 -8 -38 -20 -110 -26 -160 -25 -205 -40 -288 -69 -371 -29 -84 -27 -116 4
-56 8 16 24 34 34 39 11 6 21 26 24 48 7 40 84 174 105 181 9 3 12 -21 12 -87
0 -78 3 -92 19 -103 18 -12 19 -19 10 -59 -6 -24 -12 -62 -14 -84 -8 -86 -60
-211 -126 -304 -38 -53 -51 -90 -27 -75 41 26 -86 -148 -166 -226 -31 -30 -56
-59 -56 -65 0 -13 -41 -52 -90 -86 l-35 -24 22 30 c12 17 30 39 40 50 27 29
63 82 63 92 0 4 -4 2 -9 -6 -5 -7 -14 -10 -20 -7 -8 5 -2 19 17 44 40 51 65
101 68 137 1 17 5 57 9 91 6 52 5 62 -9 67 -13 5 -21 -2 -31 -26 -11 -25 -15
-28 -20 -15 -3 9 3 35 14 59 12 23 19 45 16 48 -3 2 -19 -8 -35 -24 -17 -16
-30 -25 -30 -21 0 4 16 46 36 94 48 117 95 245 90 249 -2 2 -9 -11 -17 -29
-17 -43 -27 -49 -50 -30 -21 18 -25 32 -8 32 5 0 7 -4 4 -10 -3 -5 0 -10 8
-10 20 0 17 33 -5 48 -10 7 -18 19 -18 25 0 7 7 3 15 -7 8 -11 15 -15 15 -8 0
6 7 9 15 6 10 -4 15 0 15 11 0 9 -4 14 -9 10 -5 -3 -19 7 -30 22 -12 14 -18
29 -13 32 12 7 24 63 27 116 1 22 5 54 9 71 6 21 4 35 -6 45 -11 11 -12 31 -3
109 5 52 13 100 17 105 3 6 2 33 -3 60 -10 55 -9 70 20 235 39 227 38 213 45
575 4 217 2 329 -9 445 -9 85 -17 169 -18 185 -1 17 -6 36 -11 43 -4 7 -5 19
-2 27 3 8 0 17 -6 21 -8 5 -9 -28 -5 -122 3 -71 2 -158 -2 -194 l-7 -65 -9 63
c-7 58 -25 97 -25 55 0 -29 -23 -71 -41 -76 -8 -2 -22 -26 -31 -53 l-15 -49
-9 35 -8 35 -7 -45 c-28 -180 -33 -242 -20 -288 7 -26 15 -49 19 -52 14 -11
42 -72 42 -94 0 -12 4 -26 9 -32 5 -5 21 -43 35 -85 33 -100 51 -284 34 -360
-13 -63 -18 -168 -9 -187 11 -21 -18 -203 -39 -247 -11 -23 -20 -48 -20 -57 0
-9 -7 -21 -15 -28 -13 -11 -15 -8 -15 16 0 16 6 72 14 124 25 165 21 407 -9
593 -14 83 -40 151 -56 142 -3 -3 -9 8 -12 23 -3 15 -13 36 -22 47 -9 11 -14
14 -10 7 9 -17 -5 -56 -16 -45 -5 5 -10 17 -12 28 -1 11 -6 26 -10 33 -5 7 -5
21 -2 32 4 12 2 20 -5 20 -6 0 -8 5 -5 10 12 19 -6 32 -23 17 -24 -20 -50 -17
-56 7 -2 12 -10 59 -16 106 -33 242 -108 523 -210 781 -34 87 -90 202 -75 154
19 -57 65 -221 65 -230 0 -22 -51 51 -60 87 -6 21 -15 38 -19 38 -5 0 -12 30
-16 68 -7 69 -22 104 -52 121 -16 8 -18 2 -21 -55 -2 -49 1 -66 12 -70 18 -7
31 -58 19 -76 -9 -16 -11 -68 -1 -62 3 2 13 1 22 -2 14 -5 14 -9 1 -35 -14
-26 -14 -29 6 -39 14 -8 19 -18 16 -31 -3 -10 -2 -21 2 -24 5 -2 9 -30 10 -61
1 -37 7 -61 17 -68 8 -6 15 -29 16 -51 1 -30 12 -54 45 -98 29 -40 43 -70 43
-91 1 -17 7 -42 15 -56 14 -25 14 -25 9 10 -5 34 -5 34 11 15 42 -51 87 -167
101 -260 6 -40 8 -45 13 -26 17 63 66 -301 53 -389 -9 -63 -32 -23 -57 100 -9
41 -21 95 -29 120 -7 25 -21 72 -31 105 -19 66 -22 75 -93 225 -27 58 -58 116
-70 130 l-21 25 -26 -26 c-26 -25 -26 -28 -11 -56 8 -17 13 -42 10 -57 -2 -14
0 -26 5 -26 6 0 15 -9 21 -20 8 -15 7 -18 -2 -15 -7 2 -21 -2 -31 -9 -16 -12
-17 -17 -5 -36 10 -17 10 -24 1 -27 -7 -2 -10 -10 -8 -16 2 -7 6 -30 9 -52 5
-38 3 -41 -25 -54 -28 -12 -29 -14 -14 -31 11 -12 13 -20 6 -25 -6 -3 -11 -15
-11 -26 0 -12 -7 -19 -18 -19 -11 0 -31 -17 -46 -37 l-26 -38 27 -11 c25 -11
26 -12 6 -18 -23 -7 -25 -33 -4 -46 17 -10 -3 -50 -24 -50 -8 0 -15 -5 -15
-11 0 -5 5 -7 11 -3 7 4 10 1 7 -7 -3 -8 -11 -13 -17 -11 -7 1 -10 -2 -7 -7 4
-5 -1 -14 -10 -19 -19 -10 -11 -32 11 -32 35 0 62 -22 61 -50 -1 -16 -3 -28
-6 -28 -21 1 -29 -6 -35 -31 -3 -16 -13 -32 -20 -35 -8 -3 -12 -12 -9 -19 3
-8 -2 -17 -11 -21 -9 -3 -13 -2 -10 4 3 6 -1 7 -9 4 -20 -8 -20 -14 -1 -28 9
-6 18 -24 21 -40 3 -16 9 -37 14 -46 16 -29 7 -60 -17 -66 -21 -6 -22 -10 -16
-48 4 -27 20 -57 46 -89 22 -26 37 -50 34 -54 -4 -3 -40 -6 -81 -7 -41 -1 -78
-5 -82 -8 -9 -10 46 -58 67 -58 22 0 24 -4 33 -54 6 -32 5 -38 -7 -33 -8 3
-22 0 -31 -6 -15 -11 -15 -19 -2 -82 8 -38 13 -72 10 -74 -2 -2 -13 4 -23 13
-27 24 -44 12 -36 -26 6 -24 3 -30 -14 -35 -27 -7 -28 -46 -2 -104 19 -42 19
-68 1 -39 -8 13 -10 12 -10 -2 0 -9 6 -20 12 -24 9 -6 5 -10 -12 -14 -28 -7
-34 -34 -13 -65 16 -24 17 -43 1 -27 -34 34 -26 -14 11 -67 20 -28 18 -51 -5
-51 -23 0 -16 -16 20 -47 31 -28 32 -31 15 -41 -10 -7 -26 -12 -34 -12 -20 0
-19 -13 5 -60 14 -27 16 -41 9 -46 -7 -4 -9 -21 -5 -46 5 -31 3 -40 -11 -45
-44 -16 -42 -39 7 -99 22 -27 38 -55 35 -61 -2 -7 1 -12 7 -10 13 2 67 -71 68
-92 0 -7 14 -39 32 -70 29 -52 30 -55 6 -33 -24 22 -44 30 -34 13 3 -4 8 -36
10 -69 4 -50 2 -60 -10 -55 -11 4 -14 -4 -14 -36 0 -23 -4 -41 -10 -41 -10 0
-27 -34 -60 -119 -12 -30 -30 -67 -41 -82 -10 -15 -19 -30 -19 -33 0 -3 -13
-24 -28 -48 -34 -51 -45 -78 -32 -78 6 0 10 -7 10 -17 0 -14 -2 -14 -20 2 -20
18 -21 18 -45 -5 -28 -26 -30 -36 -15 -76 10 -25 12 -26 29 -10 9 9 23 16 29
16 6 0 14 9 17 20 3 11 12 20 19 20 8 0 19 7 26 15 7 8 16 12 21 9 5 -3 9 0 9
6 0 7 -7 10 -15 6 -8 -3 -15 -4 -15 -2 0 3 -3 12 -6 20 -4 11 -2 15 8 11 8 -3
23 3 33 15 10 11 23 20 29 20 6 0 5 -5 -2 -12 -15 -15 -16 -54 -2 -63 6 -3 10
-17 10 -31 0 -21 -4 -24 -20 -19 -15 5 -20 2 -22 -12 0 -10 -2 -23 -2 -30 -1
-6 -5 -15 -9 -19 -21 -22 14 -79 44 -71 8 2 11 2 7 0 -5 -3 -8 -9 -8 -14 0 -6
4 -7 10 -4 5 3 10 1 10 -4 0 -6 7 -11 15 -11 10 0 15 -10 15 -27 0 -21 -3 -24
-12 -15 -19 19 -26 14 -20 -15 4 -26 3 -27 -10 -9 -10 13 -22 17 -37 13 -24
-6 -25 -6 -10 27 9 20 9 28 -3 39 -9 10 -20 12 -28 7 -8 -5 -18 -6 -23 -3 -5
3 -7 -7 -5 -23 3 -16 3 -24 1 -17 -5 13 -33 26 -41 18 -3 -3 0 -11 6 -17 7 -7
12 -17 12 -23 0 -5 -6 -3 -13 5 -13 16 -57 22 -57 8 0 -4 -7 -8 -15 -8 -14 0
-20 12 -16 33 1 5 -2 6 -7 3 -4 -2 -14 -1 -22 4 -11 7 -11 11 -1 24 7 9 17 14
21 11 4 -2 12 7 19 21 6 14 15 23 20 20 5 -4 8 2 6 11 -15 74 -15 74 -43 72
-15 -1 -35 2 -45 6 -42 18 -139 -62 -151 -124 -3 -19 -15 -41 -26 -48 -17 -12
-19 -21 -14 -56 l7 -42 -42 40 c-22 21 -41 34 -41 27 0 -11 -76 -52 -123 -66
-14 -5 -17 -15 -15 -50 2 -24 5 -42 7 -40 2 2 11 -2 19 -9 13 -10 15 -9 10 10
-5 20 -4 21 18 11 19 -9 28 -8 42 5 10 10 23 17 29 17 6 0 16 6 22 14 9 11 21
12 53 5 43 -10 63 -4 38 11 -8 5 -11 12 -7 16 4 4 18 -3 31 -15 13 -12 27 -21
32 -19 5 1 20 -4 32 -11 30 -16 40 -7 16 16 -17 17 -17 18 2 22 26 5 34 20 27
52 -7 39 9 42 44 9 24 -23 33 -26 44 -17 8 7 11 8 7 3 -4 -5 -2 -18 5 -30 6
-11 12 -36 13 -54 1 -26 -1 -30 -12 -21 -8 6 -14 18 -14 26 0 8 -5 11 -10 8
-6 -4 -18 -1 -27 7 -14 11 -15 10 -8 -12 4 -14 12 -27 16 -28 5 -2 6 -9 2 -15
-4 -7 0 -8 11 -4 14 5 17 3 12 -8 -3 -8 -1 -15 4 -15 6 0 10 6 10 13 0 6 7 -1
15 -17 15 -28 21 -146 8 -159 -15 -16 -31 16 -26 51 3 28 2 33 -6 22 -9 -13
-11 -13 -11 2 0 10 -9 22 -19 27 -16 9 -18 8 -14 -9 8 -30 -16 -24 -30 7 -17
39 -58 42 -74 7 -7 -15 -10 -31 -7 -36 3 -5 0 -16 -7 -24 -9 -11 -8 -18 5 -33
15 -16 15 -19 1 -31 -8 -7 -15 -19 -15 -26 0 -8 -4 -14 -9 -14 -4 0 -7 -11 -6
-25 2 -14 -1 -25 -6 -25 -5 0 -9 9 -9 20 0 40 -18 19 -22 -25 -2 -25 0 -45 4
-45 4 0 3 -11 -2 -25 -5 -14 -7 -25 -4 -25 3 0 -5 -18 -17 -40 -12 -22 -19
-43 -15 -47 4 -4 11 -2 15 6 5 7 12 12 16 11 4 -1 17 7 30 18 29 25 43 81 24
93 -10 6 -11 9 -1 9 6 0 12 6 12 13 1 21 48 49 67 39 10 -6 24 -6 35 -1 10 5
27 14 38 19 11 6 20 7 20 3 0 -5 3 -19 7 -32 3 -14 2 -22 -3 -19 -5 4 -9 -15
-9 -40 0 -44 2 -48 35 -63 51 -24 77 -9 86 50 9 65 21 91 40 91 12 0 15 -7 12
-30 -5 -36 -1 -37 36 -5 16 14 31 25 33 25 2 0 19 -11 36 -24 36 -26 67 -39
68 -28 3 28 10 47 21 58 11 11 18 10 42 -9 35 -28 32 -41 -28 -129 -23 -35
-58 -85 -76 -113 -44 -66 -108 -137 -138 -153 -20 -12 -23 -12 -19 0 2 7 10
12 16 11 14 -4 15 14 1 22 -6 4 -8 9 -6 13 2 4 7 34 10 67 4 33 9 67 12 77 10
34 -16 27 -34 -10 -13 -27 -16 -46 -10 -67 9 -35 1 -85 -14 -85 -6 0 -8 -11
-6 -25 3 -14 1 -25 -4 -25 -5 0 -6 -5 -3 -10 4 -6 3 -10 -2 -8 -4 1 -35 -25
-68 -58 -59 -59 -126 -114 -138 -114 -14 0 -6 39 9 48 8 5 18 28 21 52 5 38 4
43 -11 37 -10 -4 -22 -7 -27 -7 -5 0 -9 -7 -9 -15 0 -8 -5 -15 -11 -15 -7 0
-10 -18 -8 -47 1 -27 -3 -60 -9 -74 -12 -29 -52 -47 -52 -23 0 8 -5 14 -11 14
-6 0 -9 -9 -6 -20 7 -26 -31 -50 -44 -29 -5 8 -4 15 0 17 11 4 2 42 -10 42 -5
0 -9 -9 -9 -20 0 -11 -4 -20 -8 -20 -5 0 -9 -7 -9 -15 0 -8 5 -15 10 -15 6 0
0 -9 -12 -19 -44 -38 -202 -92 -379 -129 -46 -10 -86 -22 -90 -28 -5 -6 -25
-6 -62 1 -58 11 -56 8 -51 70 0 8 9 15 19 15 9 0 31 22 50 50 25 39 38 50 58
50 15 0 33 8 40 17 12 17 13 17 14 1 0 -29 18 -30 66 -2 38 22 48 25 55 13 5
-8 9 -19 9 -25 0 -6 7 -11 15 -11 8 0 12 4 9 9 -3 4 3 8 12 8 10 0 14 3 11 7
-4 3 -3 11 2 17 5 6 15 40 22 76 12 60 22 79 41 80 4 0 5 -6 2 -14 -8 -21 12
-28 29 -11 9 8 20 15 25 15 5 0 21 15 35 33 l25 33 -24 23 c-13 13 -24 27 -24
31 0 4 20 29 45 56 26 27 43 54 40 62 -3 7 -5 21 -5 29 0 9 -3 13 -7 10 -3 -4
-12 -2 -19 4 -10 8 -15 8 -19 -3 -4 -11 -23 -15 -65 -15 -49 0 -61 4 -66 19
-3 10 -9 16 -14 13 -5 -3 -11 1 -13 7 -3 7 -6 3 -6 -9 -1 -30 -17 -37 -25 -10
-5 18 -8 19 -15 7 -13 -19 -17 -13 -25 37 -5 35 -4 41 9 37 8 -4 15 -1 15 6 0
24 20 -3 21 -28 0 -15 3 -21 6 -13 5 11 7 11 14 0 6 -10 9 -3 10 21 1 45 13
78 23 62 5 -9 11 -8 22 3 17 16 11 35 -10 35 -17 0 -26 33 -15 51 6 9 9 10 9
2 0 -20 38 -25 65 -7 33 21 32 55 -2 113 -21 37 -27 42 -33 27 -5 -17 -8 -16
-23 8 -10 14 -20 41 -24 58 -4 18 -13 39 -20 47 -8 7 -11 16 -8 19 3 4 9 2 13
-4 6 -10 52 -26 52 -19 0 2 -9 33 -21 70 l-20 66 -24 -15 c-30 -20 -39 -20
-31 -1 6 17 -2 19 -24 5 -9 -6 -20 -5 -29 3 -10 8 -13 8 -8 1 5 -9 -23 -12
-101 -13 -135 -2 -214 -11 -187 -22 11 -4 40 -8 64 -8 69 -1 44 -10 -49 -17
-95 -7 -102 -9 -99 -32 3 -36 -3 -41 -56 -47 -30 -4 -55 -11 -55 -16 0 -10
-139 -11 -222 0 -31 4 -54 3 -52 -1 3 -4 -4 -8 -16 -8 -11 0 -39 17 -63 38
-23 22 -52 47 -64 57 -26 22 -16 34 32 36 17 1 -1 5 -40 8 -54 5 -72 4 -79 -7
-6 -11 -14 -8 -36 13 -16 15 -35 25 -43 22 -14 -5 -28 -47 -32 -100 -2 -25 0
-28 24 -25 14 1 25 -2 24 -7 0 -6 -3 -21 -5 -35 -1 -14 -11 -31 -20 -38 -10
-7 -19 -23 -19 -35 -1 -17 -2 -18 -6 -4 -2 9 -9 17 -13 17 -10 0 -40 -53 -40
-70 0 -6 -7 -18 -15 -26 -16 -17 -20 -81 -6 -103 5 -8 16 -11 25 -8 10 4 20
-1 26 -12 6 -12 17 -17 28 -14 15 3 24 -6 41 -42 12 -25 18 -51 15 -57 -4 -7
-3 -8 4 -4 7 4 12 18 12 31 0 21 4 24 30 22 23 -1 29 -6 24 -17 -4 -8 -9 -28
-12 -45 -5 -30 -6 -30 -12 -5 l-6 25 -14 -31 c-14 -31 -14 -31 -31 -11 l-16
21 -14 -22 c-14 -23 -43 -29 -54 -12 -4 7 -12 7 -25 0 -42 -22 -53 -14 -47 38
5 41 4 44 -6 22 -17 -37 -34 -53 -40 -37 -2 6 -9 -6 -15 -27 -9 -31 -8 -43 3
-59 7 -10 11 -26 8 -33 -3 -9 2 -14 14 -14 27 0 59 -25 44 -34 -6 -4 -9 -11
-6 -16 3 -4 -2 -13 -10 -20 -12 -10 -15 -10 -15 0 0 8 -3 11 -6 8 -11 -11 25
-65 67 -101 42 -35 43 -36 60 -16 21 25 25 19 34 -51 7 -58 46 -125 77 -133
13 -4 16 1 13 24 -4 35 3 36 41 7 40 -31 54 -51 49 -66 -3 -7 -1 -11 4 -8 5 3
11 19 14 35 6 28 9 30 43 26 43 -6 68 -33 88 -95 11 -35 15 -39 16 -20 l1 25
11 -22 c6 -13 15 -23 19 -23 5 0 13 -9 20 -21 9 -18 8 -20 -8 -15 -10 3 -42
-3 -71 -13 l-52 -18 -7 24 c-3 14 -8 20 -12 15 -7 -12 -95 5 -198 37 -34 10
-63 18 -65 16 -7 -6 -173 81 -172 90 1 6 -3 21 -9 35 -5 14 -16 41 -23 60
l-13 35 -1 -57 c0 -62 -1 -63 -29 -48 -13 6 -17 17 -14 33 3 14 0 28 -6 31 -7
5 -11 -2 -11 -18 0 -30 -7 -32 -37 -11 -14 10 -20 22 -17 33 5 14 4 14 -4 3
-9 -12 -20 -7 -64 26 -68 52 -140 121 -160 154 -9 14 -19 47 -23 72 -4 26 -12
47 -17 47 -6 0 -7 11 -4 25 11 43 -14 103 -56 136 -28 23 -36 26 -31 12 3 -10
11 -21 16 -24 11 -8 26 -74 33 -154 4 -33 10 -62 15 -63 18 -7 8 -20 -11 -15
-27 7 -34 21 -32 59 3 40 -32 77 -66 71 -18 -4 -28 6 -58 55 -20 33 -52 82
-70 110 -33 49 -45 98 -23 98 5 0 8 4 4 9 -3 5 7 9 23 9 23 -1 30 -7 38 -32
12 -41 39 -44 73 -9 28 29 45 31 69 6 21 -20 51 -17 45 5 -3 12 1 19 11 19 10
0 18 -13 21 -36 12 -70 15 -81 37 -101 12 -11 17 -20 10 -20 -12 0 -5 -31 10
-41 5 -3 10 -15 13 -27 2 -13 18 -36 34 -53 44 -44 40 -29 -21 79 -10 17 -15
37 -12 46 7 17 34 30 34 16 0 -6 10 -10 23 -10 13 0 28 -5 35 -12 9 -9 12 -6
12 15 0 29 -17 35 -39 15 -12 -11 -13 -9 -6 7 4 11 10 28 13 38 2 11 8 14 11
8 4 -5 11 6 18 26 11 35 11 35 -18 31 -25 -4 -29 -1 -29 18 0 27 16 40 23 20
5 -12 58 -29 97 -30 22 -1 41 -16 35 -27 -4 -5 -1 -9 5 -9 6 0 8 -5 4 -12 -11
-17 -5 -108 11 -167 9 -33 29 -69 60 -106 27 -31 50 -53 53 -50 3 2 -7 17 -21
31 -30 30 -33 40 -14 47 8 3 3 11 -13 25 -14 12 -19 21 -12 22 6 0 12 7 12 16
0 8 5 12 11 8 6 -3 9 -15 6 -25 -3 -11 -1 -17 3 -14 13 8 0 187 -16 219 -10
20 -11 33 -4 40 16 16 12 36 -7 29 -13 -5 -15 -2 -10 16 3 13 1 21 -6 20 -42
-5 -47 1 -47 50 0 28 -5 53 -10 56 -7 4 -8 11 -1 18 6 8 2 21 -13 40 -21 27
-23 27 -42 10 -10 -10 -30 -40 -42 -66 -21 -42 -26 -46 -40 -35 -10 7 -20 17
-23 21 -3 5 -9 1 -12 -8 -4 -9 -3 -13 3 -10 6 3 10 2 10 -4 0 -17 -22 -24 -31
-10 -5 8 -9 35 -9 60 0 34 -4 46 -15 46 -8 0 -15 -4 -15 -9 0 -4 -5 -8 -10 -8
-10 0 13 43 37 68 7 7 13 20 13 28 0 14 -2 14 -15 0 -8 -8 -15 -19 -15 -24 0
-4 -11 -19 -25 -32 -14 -13 -25 -29 -25 -37 0 -7 -6 -13 -14 -13 -18 0 -15 25
5 48 24 28 34 46 21 38 -15 -9 -15 0 0 27 20 37 35 49 42 31 8 -20 26 -8 26
17 0 11 -4 18 -8 15 -5 -3 -9 2 -9 10 0 9 6 13 15 9 8 -3 23 3 33 14 16 17 16
21 4 31 -8 7 -22 9 -31 6 -12 -4 -15 -2 -10 9 7 18 -5 20 -23 2 -12 -10 -13
-9 -7 7 7 20 7 20 -15 0 -12 -10 -20 -14 -16 -9 3 6 2 17 -4 25 -7 13 -9 12
-9 -2 0 -10 -3 -18 -7 -18 -15 1 -47 30 -40 36 4 4 13 2 21 -5 11 -9 13 -6 13
16 0 16 -2 22 -4 16 -3 -7 -13 -13 -24 -13 -13 0 -19 -7 -19 -23 0 -18 11 -27
55 -46 30 -13 55 -29 55 -35 0 -23 -17 -35 -54 -40 -21 -3 -39 -6 -40 -8 -1
-2 -12 -16 -24 -32 l-22 -29 0 27 c0 14 5 26 11 26 5 0 7 5 4 10 -3 6 -1 10 5
10 6 0 8 5 5 10 -3 6 -1 10 5 10 7 0 5 6 -4 15 -8 9 -13 22 -10 30 4 10 0 15
-15 15 -12 0 -21 -6 -21 -14 0 -8 -7 -17 -16 -20 -12 -4 -14 -1 -9 14 4 14 2
20 -8 20 -16 0 -30 27 -21 41 3 5 -2 17 -11 26 -16 16 -18 15 -36 -8 l-19 -24
0 23 c0 15 -4 21 -12 16 -6 -4 -8 -3 -5 3 4 6 0 19 -8 29 -7 10 -11 29 -8 42
8 35 -22 63 -64 58 -28 -3 -33 0 -29 13 4 11 2 10 -9 -3 -8 -11 -15 -14 -15
-8 0 9 -5 10 -19 2 -14 -7 -22 -7 -26 1 -4 6 -12 8 -19 6 -14 -6 15 55 60 123
19 29 35 44 46 42 20 -4 37 40 18 46 -9 3 -9 6 1 13 11 7 11 11 2 17 -23 15
-2 48 50 75 29 15 56 27 59 27 4 0 5 -14 1 -31 -7 -35 9 -51 43 -43 27 7 37
-24 18 -51 -20 -27 -17 -45 6 -45 13 0 20 -7 20 -20 0 -11 6 -21 13 -22 6 0
17 -2 22 -3 6 -2 15 -3 21 -4 13 -1 27 -37 25 -66 -2 -20 -1 -20 14 -1 22 29
19 51 -15 98 -16 22 -30 46 -30 53 0 7 -10 20 -22 31 -28 26 -80 141 -73 164
3 10 0 20 -9 23 -9 4 -16 23 -18 49 -2 24 -7 42 -13 41 -11 -1 -11 54 -1 108
5 27 5 30 -4 17 -6 -10 -19 -22 -30 -28 -15 -8 -12 4 18 62 44 87 44 86 49 70
3 -7 18 7 35 35 18 28 26 49 19 51 -6 2 8 26 30 52 33 39 40 54 35 75 -4 14
-13 25 -20 25 -19 0 -28 28 -17 48 6 10 6 24 -1 35 -7 13 -5 30 6 58 20 50 20
59 -1 59 -19 1 -64 30 -46 30 12 0 63 49 63 61 0 5 -6 9 -14 9 -23 0 -25 23
-5 51 37 53 45 101 11 67 -17 -17 -15 -8 8 37 21 42 15 55 -24 55 -16 0 -17 3
-8 12 7 7 12 19 12 27 0 11 -4 10 -16 -5 -15 -19 -16 -19 -8 1 47 129 49 145
18 145 -8 0 -15 6 -16 13 0 6 -2 21 -3 32 -1 11 -3 24 -4 28 0 5 -15 -1 -31
-13 l-31 -22 6 29 c3 15 11 47 17 70 13 53 6 73 -26 73 -23 0 -25 3 -19 33 7
38 30 67 53 67 10 0 23 7 30 15 22 26 -4 39 -76 41 -35 1 -67 3 -70 6 -2 3 13
27 34 54 42 53 68 142 38 131 -10 -4 -18 4 -25 23 -10 31 8 97 36 131 16 20
17 30 1 28 -27 -3 -37 2 -32 15 3 7 -1 16 -9 19 -9 3 -18 19 -22 36 -4 20 -13
31 -23 31 -12 0 -17 9 -18 29 -1 29 25 51 60 51 23 0 25 26 4 39 -10 6 -18 20
-16 29 2 9 -6 25 -17 34 -18 15 -18 19 -6 39 12 20 11 25 -8 40 l-22 18 33 6
34 6 -38 40 c-20 21 -44 39 -51 39 -19 0 -29 51 -14 69 9 10 7 16 -8 27 -10 8
-25 14 -32 14 -15 0 -18 16 -4 24 4 3 6 17 3 31 -2 14 1 31 7 39 9 11 9 15 -1
19 -11 4 -11 8 0 26 17 29 -2 55 -35 48 -30 -6 -30 10 1 25 20 8 24 16 20 37
-6 31 4 48 31 53 11 1 28 14 37 28 10 14 25 35 34 48 16 21 15 22 -3 22 -11 0
-31 9 -45 20 -18 14 -28 16 -36 8 -8 -8 -13 -7 -18 5 -9 24 -31 21 -40 -5 -3
-13 -22 -36 -42 -53 -72 -60 -187 -342 -243 -595 -10 -47 -24 -96 -30 -110
l-11 -25 -14 25 c-7 14 -13 49 -14 78 0 49 -1 51 -19 40 -13 -8 -22 -29 -26
-62 -4 -28 -11 -56 -16 -62 -6 -7 -9 -16 -8 -20 1 -5 -14 -45 -35 -88 -28 -59
-34 -81 -25 -87 10 -6 10 -16 -1 -48 -11 -35 -15 -39 -28 -28 -12 9 -16 9 -20
-1 -2 -7 -10 -19 -18 -26 -8 -8 -14 -32 -14 -53 0 -48 -19 -83 -21 -38 -1 17
-3 23 -6 14 -2 -9 5 -83 17 -165 19 -138 17 -184 -7 -152 -5 7 -15 32 -23 56
-7 23 -17 42 -22 42 -5 0 -7 -3 -5 -8 3 -4 6 -27 8 -52 2 -25 8 -48 14 -52 6
-5 6 -8 -2 -8 -7 0 -13 -5 -13 -11 0 -5 5 -7 10 -4 16 10 12 -98 -6 -141 -9
-22 -25 -49 -37 -61 -22 -25 -13 -29 27 -13 34 13 33 -2 -1 -35 l-28 -25 25 0
c24 0 25 -2 27 -78 2 -88 6 -119 16 -128 10 -10 9 -24 -2 -24 -5 0 -24 29 -42
65 -47 95 -48 72 0 -34 49 -108 53 -136 16 -101 -30 28 -30 29 -4 -44 11 -32
21 -81 23 -108 1 -27 8 -53 14 -57 10 -6 9 -15 -2 -43 -17 -40 -9 -61 11 -26
9 17 12 19 13 6 0 -9 4 -18 10 -20 5 -1 12 -23 15 -48 4 -30 3 -40 -3 -31 -8
10 -11 11 -17 1 -5 -8 -1 -18 9 -26 11 -7 15 -18 10 -25 -5 -9 -2 -10 9 -6 10
3 17 3 18 -1 0 -4 2 -15 4 -24 3 -18 -10 -25 -17 -10 -2 4 -21 23 -43 42 -41
37 -35 25 29 -53 21 -26 37 -49 35 -51 -6 -6 -114 80 -109 86 3 4 -25 37 -61
75 -65 67 -179 213 -179 227 0 5 7 6 14 3 21 -8 10 17 -30 75 -68 96 -139 273
-127 317 2 10 -2 42 -11 71 -9 30 -15 54 -13 54 39 13 42 23 38 117 -3 86 -2
92 14 79 16 -13 65 -86 98 -147 9 -17 17 -43 17 -57 0 -14 6 -26 13 -26 6 0
22 -16 35 -36 13 -20 25 -34 27 -32 2 2 -11 51 -29 108 -35 112 -62 259 -52
285 6 16 -6 94 -39 260 -8 39 -17 102 -20 140 -3 39 -10 74 -16 79 -5 6 -9 20
-9 32 0 13 -4 26 -10 29 -5 3 -12 28 -16 54 -7 56 -22 85 -31 62 -4 -10 -9 -8
-18 9 -7 13 -20 25 -29 26 -19 3 -40 -31 -32 -51 3 -8 1 -17 -4 -20 -11 -7
-14 8 -30 130 -23 182 -29 185 -25 12 8 -264 37 -451 108 -689 19 -65 33 -118
31 -118 -11 0 -73 141 -68 155 4 9 -2 29 -14 45 -31 42 -98 230 -124 350 -20
94 -22 132 -22 355 0 150 5 282 12 330 15 94 91 335 107 335 30 0 113 -268
102 -330 -2 -14 -19 -57 -37 -96 -18 -40 -30 -79 -27 -88 11 -28 53 -19 75 15
l20 31 11 -63 c30 -175 53 -371 62 -533 10 -186 14 -199 54 -194 14 2 24 16
34 47 8 24 21 51 31 61 25 25 33 142 16 227 -8 37 -22 131 -31 208 -9 77 -20
176 -26 220 -5 44 -9 164 -9 268 0 180 1 187 19 176 10 -7 26 -9 36 -5 20 7
19 9 -15 161 -16 73 -20 115 -16 155 6 46 56 272 72 318 3 9 13 3 30 -17 28
-34 61 -40 71 -15 3 9 -4 47 -15 83 -12 37 -22 74 -22 82 1 49 126 225 154
216 10 -3 21 -39 52 -157 7 -30 19 -113 25 -183 9 -107 8 -144 -5 -220 -8 -51
-18 -140 -21 -198 -3 -58 -10 -121 -16 -140 -14 -46 -23 -311 -12 -379 10 -66
31 -76 75 -33 38 36 58 74 58 111 0 29 25 154 53 267 8 33 28 119 43 190 15
72 35 140 45 153 10 13 18 38 17 55 0 18 6 50 15 72 8 22 25 72 37 112 12 40
58 146 103 235 78 155 83 163 112 163 32 0 42 20 44 87 1 32 11 48 68 108 107
114 174 158 241 160 21 0 22 -4 22 -67z m3097 -925 c-3 -8 -6 -5 -6 6 -1 11 2
17 5 13 3 -3 4 -12 1 -19z m-3880 -30 c-3 -7 -5 -2 -5 12 0 14 2 19 5 13 2 -7
2 -19 0 -25z m2117 -3 c16 -12 17 -20 10 -47 l-10 -33 -20 42 c-27 53 -19 67
20 38z m1773 -7 c-3 -8 -6 -5 -6 6 -1 11 2 17 5 13 3 -3 4 -12 1 -19z m-1037
-48 c-5 -16 -11 -33 -14 -38 -8 -13 -56 -21 -56 -10 0 7 70 78 77 78 1 0 -2
-13 -7 -30z m787 -12 c-3 -8 -6 -5 -6 6 -1 11 2 17 5 13 3 -3 4 -12 1 -19z
m-1707 -36 c0 -11 -39 -12 -45 -1 -4 5 5 9 19 9 14 0 26 -4 26 -8z m110 -2 c0
-5 -2 -10 -4 -10 -3 0 -8 5 -11 10 -3 6 -1 10 4 10 6 0 11 -4 11 -10z m224
-19 c3 -5 -1 -12 -10 -15 -20 -8 -29 -1 -19 13 8 13 22 14 29 2z m46 -11 c12
-7 10 -9 -8 -7 -12 0 -22 5 -22 9 0 11 12 10 30 -2z m-204 -308 c-9 -8 -26 10
-26 26 1 15 2 15 15 -2 8 -11 13 -21 11 -24z m-66 -32 c0 -5 -7 -7 -15 -4 -8
4 -15 8 -15 10 0 2 7 4 15 4 8 0 15 -4 15 -10z m929 -66 c-13 -16 -34 -19 -24
-4 3 6 -1 10 -11 10 -13 0 -14 3 -4 15 9 11 17 12 32 4 15 -8 17 -13 7 -25z
m-9 -39 c0 -11 -58 -58 -82 -67 -27 -10 -38 -28 -18 -28 7 0 7 -7 0 -20 -6
-11 -10 -28 -8 -37 2 -9 -3 -18 -9 -20 -9 -3 -13 6 -13 27 0 27 -3 31 -21 25
-15 -5 -19 -4 -14 5 4 6 16 9 27 7 15 -4 18 -1 13 13 -5 14 2 23 27 36 18 9
41 27 51 40 16 21 47 33 47 19z m-725 -65 c3 -5 1 -10 -4 -10 -6 0 -11 5 -11
10 0 6 2 10 4 10 3 0 8 -4 11 -10z m262 -212 c-3 -8 -6 -5 -6 6 -1 11 2 17 5
13 3 -3 4 -12 1 -19z m-1160 -4 c-3 -3 -12 -4 -19 -1 -8 3 -5 6 6 6 11 1 17
-2 13 -5z m1438 -195 c-8 -12 -35 -12 -35 0 0 11 22 20 33 14 4 -2 5 -9 2 -14z
m-3925 -68 c9 -22 8 -41 -4 -89 -30 -114 -16 -142 55 -104 l39 21 35 -75 c19
-41 50 -101 69 -132 19 -31 46 -86 61 -122 14 -36 35 -81 45 -101 10 -20 31
-67 46 -105 14 -38 32 -75 38 -83 8 -11 8 -13 -1 -8 -7 4 -13 0 -16 -10 -4
-14 -5 -13 -6 5 0 12 -5 22 -11 22 -5 0 -10 7 -10 15 0 14 -40 42 -40 28 0 -4
-5 -1 -10 7 -7 10 -8 2 -4 -29 8 -50 -6 -50 -32 1 -11 22 -18 27 -24 18 -6 -9
-10 -8 -18 6 -9 17 -11 16 -17 -9 -7 -25 7 -78 41 -162 6 -17 5 -18 -7 -8 -8
7 -35 57 -59 112 -24 55 -46 98 -48 96 -4 -4 31 -112 47 -143 27 -53 51 -112
61 -152 11 -40 68 -156 156 -317 22 -40 26 -55 17 -64 -9 -9 -17 -1 -37 30
-14 22 -26 49 -26 60 0 11 -21 39 -46 63 -90 84 -206 297 -277 508 -50 147
-54 176 -28 183 28 7 27 32 -8 103 -42 87 -65 172 -51 189 9 11 9 27 1 65 -16
75 -13 140 9 189 22 48 37 46 60 -8z m6234 11 c24 -46 29 -97 16 -173 -10 -55
-10 -73 0 -79 15 -9 -12 -100 -60 -206 -34 -75 -34 -104 0 -104 17 0 19 -4 14
-27 -55 -242 -219 -571 -328 -658 -24 -19 -36 -37 -36 -54 -1 -36 -21 -60 -44
-51 -16 5 -17 8 -4 21 17 17 158 299 158 316 0 6 20 58 44 115 41 97 106 286
106 309 0 25 -18 -4 -30 -48 -7 -27 -23 -70 -35 -98 -12 -27 -25 -59 -29 -69
-3 -10 -9 -16 -12 -14 -3 3 2 23 10 43 20 48 22 145 2 145 -15 0 -46 42 -46
63 0 8 -6 14 -14 14 -8 0 -11 -8 -8 -21 5 -19 4 -20 -13 -6 -17 14 -18 13 -12
-3 4 -11 -2 -36 -17 -63 -15 -29 -26 -40 -29 -30 -8 21 3 57 16 49 5 -3 7 -2
4 4 -9 15 25 101 79 201 26 48 65 122 86 165 l39 79 35 -27 c68 -52 85 -14 54
122 -12 55 -12 64 3 87 22 33 33 33 51 -2z m-5186 -267 c-6 -13 -15 -22 -20
-19 -5 3 -2 15 8 25 23 25 26 24 12 -6z m2132 15 c0 -5 -5 -10 -11 -10 -5 0
-7 5 -4 10 3 6 8 10 11 10 2 0 4 -4 4 -10z m-2253 -302 c-3 -8 -6 -5 -6 6 -1
11 2 17 5 13 3 -3 4 -12 1 -19z m5053 -82 c0 -3 -4 -8 -10 -11 -5 -3 -10 -1
-10 4 0 6 5 11 10 11 6 0 10 -2 10 -4z m-124 -63 c-10 -10 -19 5 -10 18 6 11
8 11 12 0 2 -7 1 -15 -2 -18z m-523 -500 c-3 -6 -12 -9 -21 -6 -10 4 -12 8 -4
11 7 2 12 13 13 25 0 21 1 21 8 2 5 -11 6 -25 4 -32z m-28 -67 c-10 -20 -22
-39 -28 -43 -5 -3 -8 -2 -6 3 33 64 44 83 47 79 2 -2 -4 -20 -13 -39z m-5166
-150 c28 -13 73 -43 100 -67 27 -24 63 -54 80 -67 25 -19 30 -29 25 -48 -3
-13 -2 -30 4 -37 6 -6 12 -28 15 -47 2 -23 4 -14 5 26 2 54 5 62 27 72 14 6
38 9 55 6 17 -4 36 -2 43 5 11 8 18 6 32 -9 10 -11 24 -20 31 -20 8 0 26 -11
41 -25 16 -13 64 -52 108 -87 93 -74 249 -229 311 -310 46 -59 50 -68 34 -68
-5 0 -10 8 -10 17 0 13 -3 14 -11 6 -6 -6 -17 -9 -24 -7 -18 7 -30 -15 -16
-29 18 -18 13 -29 -8 -17 -32 17 -38 11 -11 -10 33 -26 10 -25 -43 0 l-42 21
35 -31 c19 -17 66 -50 105 -72 58 -35 66 -43 50 -49 -18 -7 -17 -8 5 -8 16 -1
21 -4 14 -11 -10 -10 -38 -3 -139 33 -22 8 -52 17 -67 21 -26 6 -27 5 -17 -24
7 -19 20 -32 35 -36 13 -3 22 -10 19 -14 -9 -15 -73 -21 -99 -9 -30 14 -50 3
-23 -12 9 -6 17 -16 17 -23 0 -8 7 -19 15 -26 22 -18 18 -30 -7 -30 -58 1
-226 108 -327 208 -42 42 -51 56 -40 63 11 7 11 9 -3 9 -22 0 -50 53 -46 88 4
39 61 52 120 28 24 -10 69 -29 102 -42 l58 -23 -23 28 c-13 16 -61 73 -107
127 -51 61 -81 105 -79 116 3 9 -9 30 -29 49 -39 38 -48 28 -42 -46 2 -25 -1
-46 -6 -48 -5 -2 -1 -11 9 -21 15 -15 16 -19 4 -27 -28 -18 -27 -19 -134 132
-43 61 -81 107 -82 102 -2 -5 15 -45 37 -89 23 -44 36 -80 30 -82 -5 -2 -10
-8 -10 -13 0 -6 5 -7 12 -3 8 5 9 0 6 -14 -6 -23 7 -31 15 -9 3 6 3 -3 0 -21
-4 -22 -1 -38 11 -51 15 -17 15 -19 0 -32 -14 -12 -19 -10 -35 10 -11 13 -19
29 -19 37 0 8 -4 14 -9 14 -18 0 -50 65 -44 88 4 17 -5 33 -34 65 -31 33 -46
64 -71 142 -42 136 -45 150 -38 190 8 41 17 43 85 11z m5983 -8 c3 -65 -1 -82
-49 -236 -26 -83 -110 -165 -110 -107 0 8 3 12 7 10 4 -2 6 10 6 28 0 18 4 45
8 61 14 48 -14 27 -67 -50 -27 -38 -52 -76 -57 -84 -13 -22 -23 -5 -11 18 6
12 7 38 2 71 -7 43 -5 55 13 83 12 18 23 48 25 67 2 27 14 45 53 80 58 52 123
90 156 91 18 0 22 -6 24 -32z m-391 -153 c31 7 32 7 25 -26 -4 -19 -10 -57
-14 -85 -8 -51 -16 -64 -62 -98 -14 -10 -17 -16 -7 -13 9 4 17 2 17 -4 0 -17
-143 -197 -167 -210 -13 -7 -21 -15 -18 -17 3 -3 -2 -14 -12 -24 -22 -25 -16
-23 74 16 96 42 132 50 166 37 19 -8 27 -18 27 -35 0 -39 -19 -77 -40 -83 -15
-4 -18 -9 -10 -18 7 -9 -4 -25 -42 -59 -29 -26 -64 -58 -78 -70 -26 -24 -123
-92 -127 -89 -2 1 -26 -9 -55 -22 -52 -24 -82 -21 -60 7 6 7 25 30 43 51 31
36 26 47 -11 27 -11 -6 -31 -8 -46 -4 -26 7 -27 12 -8 77 5 17 3 17 -17 6 -42
-22 -144 -49 -147 -39 -2 6 -15 10 -28 10 -20 0 -5 14 65 61 50 33 91 63 91
65 0 3 -10 5 -22 4 -13 -1 -35 -2 -51 -1 -24 1 -26 3 -15 21 15 24 6 33 -32
33 -16 0 -30 2 -30 5 0 7 68 91 114 140 23 24 91 87 151 140 137 120 127 113
167 140 90 62 103 69 115 60 7 -6 26 -7 44 -3z m-431 -14 c0 -5 -6 -14 -14
-20 -12 -10 -13 -8 -9 8 5 21 23 30 23 12z m-3692 -173 c7 -7 12 -18 12 -26 0
-10 -7 -9 -30 5 -16 9 -30 21 -30 25 0 12 35 9 48 -4z m2968 -13 c-11 -8 -22
-12 -25 -9 -6 6 19 24 34 24 6 -1 1 -7 -9 -15z m694 -3 c0 -4 -18 -26 -40 -47
-47 -46 -53 -42 -10 6 16 19 30 37 30 42 0 10 20 9 20 -1z m545 -29 c-2 -10
-7 -31 -11 -48 l-6 -30 -13 35 c-19 51 -18 60 9 60 18 0 23 -5 21 -17z m162
-54 c-22 -38 -38 -47 -18 -11 9 17 8 19 -9 15 -27 -7 -25 1 7 31 37 34 48 14
20 -35z m-1183 -5 c20 -8 11 -24 -15 -24 -19 0 -25 11 -12 23 8 8 8 8 27 1z
m14 -61 c5 -18 -10 -16 -34 2 -18 15 -18 15 5 13 14 -2 26 -9 29 -15z m432
-202 c0 -5 -9 -11 -21 -14 -16 -4 -18 -3 -8 9 13 16 29 19 29 5z m-4716 -158
c34 -32 89 -76 124 -98 34 -22 62 -42 62 -45 0 -3 -60 -5 -133 -6 -100 0 -141
-5 -171 -17 l-39 -17 28 -30 c16 -17 34 -30 41 -30 6 0 14 -6 17 -13 2 -7 42
-32 89 -55 68 -34 98 -43 162 -48 67 -6 77 -9 73 -25 -5 -19 37 -34 85 -30 15
1 36 -2 46 -8 11 -6 43 -11 71 -12 28 -1 51 -6 51 -10 0 -5 -26 -22 -59 -38
-62 -32 -100 -69 -132 -133 -24 -47 -18 -60 14 -31 54 50 89 63 173 63 82 0
184 -23 184 -41 0 -6 -14 -23 -31 -39 -16 -16 -44 -41 -61 -57 -16 -15 -41
-47 -54 -69 -19 -32 -37 -47 -77 -63 -63 -26 -81 -41 -130 -105 -32 -42 -52
-105 -29 -94 56 29 103 47 131 50 l34 3 2 -70 c1 -38 5 -104 10 -146 l8 -75
-68 -65 c-38 -35 -83 -78 -100 -94 -29 -27 -33 -38 -39 -106 -7 -67 -4 -86 17
-150 14 -41 28 -90 31 -110 5 -25 20 -48 56 -81 40 -37 58 -46 99 -51 27 -3
64 -13 80 -22 31 -15 31 -16 31 -103 0 -93 10 -126 31 -105 14 14 39 0 39 -23
0 -26 43 -84 67 -90 13 -4 40 -4 59 -1 54 9 81 -8 89 -57 4 -22 11 -48 15 -56
5 -8 -2 -40 -16 -80 -37 -96 -65 -223 -52 -231 8 -5 8 -16 -1 -38 -17 -40 -9
-270 10 -281 23 -15 64 11 99 61 19 28 33 59 33 70 -1 10 4 19 11 19 6 0 17
20 24 45 7 25 15 45 19 45 9 0 6 -216 -2 -239 -3 -8 -8 -11 -12 -8 -3 4 -12 2
-20 -4 -23 -20 -14 -89 12 -89 15 0 29 -32 30 -65 0 -36 20 -27 25 13 3 21 16
48 28 60 29 29 28 48 -3 76 l-25 23 0 271 c0 221 2 270 13 266 8 -3 24 14 41
46 29 53 87 120 103 120 6 0 11 -44 12 -107 1 -74 8 -131 22 -181 24 -86 89
-231 112 -250 14 -12 17 -8 27 30 29 105 60 171 75 156 4 -4 10 -265 13 -581
l5 -574 -36 -22 c-21 -12 -41 -30 -46 -38 -7 -13 1 -80 11 -87 1 -1 15 -10 30
-19 18 -11 29 -29 34 -52 9 -50 21 -52 34 -4 8 28 20 46 40 57 49 28 66 95 33
124 -10 8 -30 19 -46 26 l-27 12 4 487 c2 269 5 515 6 548 2 57 2 58 11 25 19
-68 52 -150 60 -150 5 0 24 20 41 45 30 42 93 91 167 129 43 22 81 14 81 -17
0 -36 -104 -239 -160 -311 -55 -72 -54 -83 4 -37 55 44 126 65 195 57 50 -5
125 5 207 30 20 5 23 0 34 -68 13 -81 67 -258 78 -258 4 0 18 26 32 57 14 31
37 70 52 87 25 29 27 29 35 11 18 -45 2 -193 -47 -430 -10 -49 -22 -124 -26
-166 -7 -83 3 -212 16 -204 9 6 20 -29 20 -70 1 -65 67 -161 107 -153 25 5 54
66 49 105 -3 23 -1 33 8 33 15 0 26 51 26 117 0 38 -25 122 -50 165 -12 22
-13 45 -1 50 10 3 -27 126 -53 177 -20 38 -21 71 -1 71 13 0 15 21 15 129 0
85 4 132 11 137 7 4 9 24 6 55 -5 43 -4 49 13 49 13 0 21 -10 25 -33 21 -95
131 -247 181 -247 27 0 27 0 14 35 -11 28 5 105 22 105 4 0 8 21 8 48 0 46 25
113 45 119 6 2 37 -23 71 -55 42 -41 70 -79 92 -127 19 -40 36 -65 41 -59 15
15 70 205 77 267 6 54 8 58 28 52 69 -20 171 -34 213 -29 63 8 119 -8 184 -51
28 -20 53 -34 55 -33 1 2 -20 32 -47 68 -58 76 -149 253 -152 296 -2 26 1 29
31 32 25 3 51 -7 102 -38 81 -49 94 -62 85 -89 -3 -12 5 -50 19 -91 24 -67 26
-83 26 -258 0 -182 -1 -188 -22 -197 -57 -26 -71 -107 -21 -126 13 -5 31 -25
39 -45 18 -43 42 -42 58 1 6 17 24 42 39 58 42 40 35 86 -15 110 l-38 19 0
144 c0 79 3 144 6 144 3 0 26 -16 51 -35 26 -20 51 -34 57 -32 30 9 56 152 55
305 0 17 5 32 11 32 5 0 10 -7 10 -16 0 -58 105 140 134 251 8 33 16 111 18
172 2 62 4 113 5 113 22 0 58 -37 98 -98 l49 -77 14 35 c8 19 17 72 20 118 2
45 8 82 12 82 4 0 17 -8 29 -17 24 -20 26 -37 17 -155 -3 -43 -2 -78 2 -78 5
0 18 9 29 19 21 20 21 20 25 -15 2 -18 -2 -55 -9 -81 -16 -56 -33 -166 -33
-206 0 -16 -6 -43 -15 -60 -23 -46 -51 -210 -37 -215 19 -6 14 -36 -19 -109
-56 -122 -71 -167 -85 -258 -19 -124 -26 -326 -13 -378 6 -23 13 -53 16 -67 9
-42 32 -60 77 -60 33 0 48 7 74 33 68 67 90 100 120 180 55 144 72 232 72 371
0 88 3 126 11 126 15 0 5 177 -17 330 -9 58 -16 116 -16 130 0 77 -21 245 -34
281 -8 25 -14 72 -13 110 1 36 -1 72 -5 78 -5 7 4 11 26 11 18 0 40 6 48 13
36 29 80 118 80 165 0 31 15 28 30 -7 14 -35 45 -65 58 -57 15 9 22 96 13 161
-5 33 -7 62 -5 64 1 1 25 6 52 10 67 8 147 79 157 137 4 22 16 65 27 96 17 47
20 75 16 149 -5 101 6 83 -103 177 l-38 33 7 89 c3 50 9 130 12 180 l7 90 26
-6 c21 -5 83 -31 124 -52 22 -11 2 52 -30 94 -47 62 -56 70 -121 100 -39 19
-58 36 -72 64 -10 20 -36 53 -56 71 -20 19 -52 49 -71 68 l-36 34 29 15 c31
16 195 29 237 18 14 -3 46 -22 72 -42 26 -19 49 -33 52 -31 7 7 -32 80 -63
116 -15 18 -54 46 -86 62 -33 17 -57 33 -54 36 9 9 88 25 121 24 17 0 48 6 70
14 22 8 34 14 28 15 -7 0 -13 6 -13 14 0 10 20 15 74 18 61 4 91 13 161 46 47
23 88 48 91 57 3 8 12 15 19 15 15 0 65 45 65 59 0 5 -23 17 -51 26 -39 13
-77 16 -165 13 -63 -2 -114 0 -114 3 0 4 35 29 78 57 42 28 97 72 122 97 40
40 49 45 90 45 l45 0 -70 -69 -70 -69 52 -6 c111 -13 165 -57 149 -120 -16
-63 -217 -193 -328 -211 -23 -4 -48 -13 -55 -20 -7 -8 -38 -19 -68 -26 -30 -7
-55 -14 -55 -15 0 -2 18 -31 39 -64 22 -34 43 -74 46 -90 18 -80 -61 -119
-127 -62 -56 49 -61 50 -171 43 -4 -1 13 -29 38 -63 25 -34 45 -65 45 -69 0
-4 17 -13 38 -20 44 -14 140 -109 166 -164 21 -43 17 -108 -8 -133 -21 -21
-71 -17 -104 8 l-27 22 -6 -59 c-4 -32 -9 -88 -12 -125 l-6 -67 59 -51 c65
-57 75 -78 84 -187 5 -59 2 -86 -18 -150 -13 -43 -29 -99 -36 -125 -10 -36
-26 -60 -71 -103 -32 -31 -71 -58 -87 -61 -29 -6 -29 -7 -34 -89 -8 -125 -42
-174 -109 -155 -20 6 -29 5 -29 -3 0 -17 -77 -95 -101 -102 -24 -8 -26 -61 -4
-131 9 -27 22 -114 30 -194 7 -80 23 -233 34 -341 14 -132 17 -206 11 -227 -4
-18 -12 -85 -15 -149 -8 -132 -39 -276 -87 -396 -43 -107 -130 -201 -203 -218
-59 -13 -121 -1 -149 30 -36 39 -64 185 -60 311 6 211 39 372 103 498 11 22
17 50 14 67 -2 17 8 84 22 150 38 178 45 216 49 265 2 25 9 57 15 72 9 23 7
28 -9 33 -11 4 -20 11 -20 16 0 5 -15 9 -34 9 -26 0 -41 7 -59 30 -32 38 -37
38 -37 -3 0 -83 -99 -337 -148 -381 -18 -16 -22 -30 -22 -79 0 -75 -35 -208
-62 -237 -16 -17 -29 -21 -62 -18 l-41 3 -2 -57 c-2 -52 1 -60 25 -79 15 -11
32 -30 39 -42 26 -47 8 -132 -36 -171 -11 -11 -21 -25 -21 -33 0 -28 -48 -63
-85 -63 -38 0 -85 35 -85 64 0 9 -13 22 -30 31 -62 32 -62 140 0 200 28 27 30
33 30 107 0 69 -2 78 -19 78 -10 0 -38 15 -62 33 -62 47 -72 50 -179 52 -52 1
-111 5 -131 9 -36 8 -36 7 -41 -31 -8 -58 -55 -204 -78 -241 -16 -26 -26 -32
-54 -32 -39 0 -60 21 -91 91 -21 46 -36 68 -70 101 -20 19 -20 19 -25 -35 -3
-30 -10 -61 -17 -69 -8 -9 -10 -28 -6 -51 9 -58 -2 -84 -42 -97 -64 -21 -101
-2 -181 92 l-32 36 -4 -111 c-3 -104 -2 -118 24 -187 16 -41 30 -97 33 -125 2
-27 12 -68 21 -90 28 -65 24 -182 -10 -285 -34 -102 -69 -144 -120 -144 -55 0
-109 45 -140 115 -14 33 -26 71 -26 83 0 13 -8 38 -17 57 -27 52 -25 282 4
409 12 52 25 122 28 156 l7 60 -34 -4 c-18 -2 -41 3 -50 10 -21 15 -69 146
-88 236 l-13 64 -36 -8 c-20 -4 -79 -8 -131 -9 -99 -1 -120 -7 -189 -59 -52
-39 -96 -34 -120 12 -16 30 -9 50 45 119 42 54 80 118 111 186 l12 28 -38 -22
c-21 -11 -55 -44 -75 -71 -21 -27 -51 -54 -67 -60 l-29 -10 0 -403 c0 -399 0
-404 21 -410 29 -10 59 -64 59 -108 0 -46 -20 -88 -57 -117 -15 -12 -35 -40
-43 -63 -28 -76 -112 -74 -135 3 -5 19 -26 51 -46 70 -65 63 -61 155 8 210
l28 22 1 356 c0 197 -2 390 -4 430 l-5 72 -32 0 c-43 0 -65 26 -123 150 -51
107 -82 210 -82 270 l0 35 -25 -37 c-25 -37 -25 -39 -25 -256 0 -203 1 -220
19 -236 28 -25 36 -86 17 -130 -8 -20 -20 -36 -25 -36 -6 0 -11 -16 -11 -35 0
-59 -53 -99 -105 -79 -19 8 -45 55 -45 84 0 11 -4 20 -10 20 -13 0 -40 54 -40
79 0 17 -3 18 -34 9 -44 -14 -89 3 -106 40 -20 43 -31 232 -20 335 10 95 24
152 59 248 14 39 18 65 12 85 -7 27 -11 29 -57 30 -65 2 -111 26 -131 69 -10
20 -28 38 -44 44 -39 14 -52 45 -59 141 -6 94 -1 89 -100 105 -52 8 -145 98
-160 156 -6 24 -23 79 -37 122 -22 68 -25 89 -19 158 3 43 11 91 17 106 6 16
50 66 99 113 l88 85 -10 90 c-5 50 -11 91 -13 93 -1 1 -24 -8 -49 -22 -72 -38
-116 -10 -116 75 0 64 88 170 179 213 39 19 63 38 75 60 9 17 30 46 47 64 30
32 30 32 7 34 -114 8 -118 7 -176 -43 -22 -20 -44 -29 -67 -29 -83 0 -86 78
-6 194 l31 44 -71 17 c-38 10 -76 23 -83 31 -8 7 -34 16 -58 20 -64 9 -222 91
-279 144 -51 48 -63 86 -39 129 12 23 73 48 140 57 l52 7 -68 68 -68 69 43 0
c39 0 50 -6 105 -57z m4026 -155 c0 -5 11 -26 25 -48 19 -31 22 -40 10 -40
-11 0 -13 -7 -8 -30 3 -17 1 -30 -5 -30 -11 0 -24 -40 -14 -41 62 -7 110 -27
114 -47 3 -14 5 -13 21 2 10 10 20 16 23 13 3 -3 -4 -15 -16 -27 -21 -21 -21
-22 -3 -35 10 -8 14 -15 9 -15 -5 0 -18 8 -28 17 -14 13 -21 14 -30 5 -16 -16
-31 -15 -22 0 4 7 -8 3 -27 -8 -29 -17 -34 -26 -35 -60 -3 -78 -4 -84 -19 -84
-8 0 -15 -7 -15 -16 0 -12 -4 -11 -19 7 -15 19 -21 21 -33 11 -19 -15 -32 -3
-16 15 13 16 15 93 3 113 -7 11 -10 10 -16 -6 -7 -17 -8 -17 -8 -1 -1 10 6 20
14 23 10 4 13 15 9 37 l-6 32 21 -30 c11 -16 21 -26 21 -20 0 21 -33 95 -44
96 -6 1 3 4 19 8 20 4 30 12 29 24 -1 9 3 17 8 17 6 0 4 8 -3 17 -12 15 -12
16 5 10 16 -6 17 -4 11 20 -5 23 -4 26 6 16 32 -32 39 -2 9 37 -11 14 -20 34
-19 45 0 20 0 20 14 1 8 -11 15 -24 15 -28z m-3792 3 c9 -5 56 -12 103 -15 47
-3 110 -13 140 -22 30 -9 59 -17 64 -18 29 -6 55 -19 55 -27 0 -6 -4 -8 -9 -5
-5 3 -23 -2 -41 -10 -18 -9 -35 -13 -39 -8 -3 5 -10 9 -16 9 -5 0 -36 6 -68
13 -63 15 -77 11 -57 -13 11 -13 8 -15 -18 -15 -72 0 -37 -37 70 -73 40 -14
90 -29 111 -32 37 -7 37 -8 20 -27 -15 -17 -26 -19 -88 -14 -90 8 -147 13
-163 15 -7 0 -17 12 -23 25 -10 21 -20 24 -90 29 -84 7 -136 25 -208 73 -24
16 -56 36 -69 44 -65 40 -26 53 157 54 98 1 136 5 139 14 4 14 8 15 30 3z
m3849 -17 c-7 -7 -37 7 -37 17 0 6 9 5 21 -1 11 -7 19 -14 16 -16z m985 1 c73
-1 146 -5 161 -9 27 -8 27 -9 11 -27 -9 -11 -23 -19 -30 -19 -7 0 -19 -9 -27
-20 -7 -10 -48 -36 -91 -56 -62 -30 -93 -38 -159 -43 -75 -5 -82 -8 -85 -28
-4 -24 -5 -25 -62 -29 -19 -2 -67 -6 -105 -10 -62 -5 -72 -4 -88 14 -17 19
-17 20 15 26 18 3 81 20 139 38 89 26 106 35 105 51 -1 11 -13 24 -31 32 l-30
12 27 8 c15 4 32 13 39 21 13 16 1 18 -21 5 -22 -15 -34 -1 -13 15 13 10 6 9
-25 -3 -40 -15 -44 -15 -60 0 -15 16 -13 17 28 18 75 2 119 7 137 18 12 6 20
6 25 -2 4 -7 53 -12 140 -12z m-1115 -47 c19 -21 3 -30 -21 -13 -14 11 -17 20
-11 42 7 24 9 25 13 8 2 -11 11 -27 19 -37z m748 25 c-11 -3 -22 -9 -26 -14
-3 -5 -27 -11 -55 -14 l-49 -5 55 20 c30 10 64 19 75 18 l20 0 -20 -5z m-3661
-28 c-4 -8 -11 -15 -16 -15 -6 0 -5 6 2 15 7 8 14 15 16 15 2 0 1 -7 -2 -15z
m2891 -75 c3 -5 -1 -10 -10 -10 -9 0 -13 5 -10 10 3 6 8 10 10 10 2 0 7 -4 10
-10z m-90 -50 c3 -5 1 -10 -4 -10 -6 0 -11 5 -11 10 0 6 2 10 4 10 3 0 8 -4
11 -10z m335 -11 c0 -6 -4 -7 -10 -4 -5 3 -10 11 -10 16 0 6 5 7 10 4 6 -3 10
-11 10 -16z m397 -49 c47 -18 62 -30 66 -47 2 -13 2 -23 -1 -23 -9 0 -82 44
-82 50 0 3 -16 14 -35 24 -19 11 -35 23 -35 29 0 6 5 6 13 0 6 -5 40 -20 74
-33z m-3937 5 c0 -6 -102 -75 -111 -75 -3 0 -4 11 -2 24 4 17 17 27 51 39 53
17 62 19 62 12z m3579 -26 c10 -17 9 -18 -14 -7 -27 12 -33 25 -11 25 7 0 18
-8 25 -18z m-3287 -56 c-23 -4 -23 -5 -6 -24 9 -10 30 -19 47 -19 22 0 28 -4
23 -16 -8 -20 40 -64 69 -64 22 0 22 -2 13 -40 -9 -36 -8 -43 11 -59 11 -10
18 -20 16 -23 -3 -3 15 -2 39 2 43 6 46 6 55 -23 9 -24 7 -34 -9 -54 -11 -14
-20 -30 -20 -36 0 -21 -76 -126 -100 -138 -14 -7 -42 -29 -64 -48 l-38 -36 16
32 c21 42 21 93 0 93 -8 0 -12 5 -9 10 4 6 1 18 -6 26 -11 13 -10 18 4 25 19
11 23 39 6 39 -6 0 -8 9 -4 20 10 32 -20 35 -70 6 -30 -18 -47 -35 -51 -54 -3
-15 -13 -49 -22 -77 -30 -95 -51 -217 -41 -242 12 -33 11 -93 -2 -93 -6 0 -9
-6 -6 -12 2 -7 10 -12 16 -10 7 1 10 -2 6 -8 -3 -6 -11 -8 -16 -5 -5 4 -9 -4
-10 -17 -1 -23 -1 -23 -8 2 l-7 25 -9 -25 c-5 -16 -4 -25 4 -28 6 -2 11 -12
11 -23 0 -10 5 -19 10 -19 6 0 10 5 10 11 0 5 17 -9 38 -33 l37 -43 3 74 c3
91 17 113 28 45 l8 -49 7 71 c17 178 40 139 28 -46 -5 -74 -7 -145 -4 -157 3
-13 1 -23 -4 -23 -5 0 -7 -10 -3 -22 3 -15 2 -19 -7 -14 -8 6 -10 1 -5 -18 5
-21 3 -26 -12 -26 -14 0 -15 -3 -6 -8 9 -6 10 -16 4 -33 -9 -23 -10 -23 -17
10 -6 28 -9 31 -17 18 -5 -9 -15 -17 -23 -17 -8 0 -18 -7 -23 -15 -15 -28 -32
26 -21 71 13 56 11 94 -4 94 -7 0 -19 16 -26 35 -7 19 -17 35 -22 35 -5 0 -9
7 -9 15 0 8 -4 15 -10 15 -5 0 -10 -6 -10 -14 0 -20 -19 -31 -32 -18 -5 5 -11
29 -13 53 -5 77 -3 73 -21 58 -8 -7 -22 -25 -30 -41 -22 -43 -31 -34 -26 27 6
72 -12 73 -55 2 -32 -51 -32 -51 -33 -21 0 17 -3 80 -6 140 -11 188 -10 227 4
284 8 30 15 60 16 65 2 10 21 43 65 109 14 21 41 49 61 62 19 13 49 44 65 69
17 25 34 45 38 45 5 0 6 -4 3 -8 -2 -4 -1 -14 4 -22 7 -11 11 -11 24 -1 13 11
17 11 21 -2 7 -16 3 -69 -6 -77 -9 -8 -47 -90 -42 -90 3 0 18 11 34 25 16 13
36 22 43 19 8 -3 18 7 26 25 7 17 16 31 21 31 21 0 28 39 17 108 -13 86 -8
102 29 101 25 -2 25 -2 5 -6z m3345 -102 c-1 -60 0 -108 2 -106 5 6 26 -17 40
-45 12 -23 11 -23 -15 4 -24 26 -29 27 -39 12 -7 -8 -15 -13 -18 -9 -4 3 -1
-6 6 -21 7 -14 17 -26 24 -26 6 0 27 -18 46 -40 19 -22 41 -40 50 -40 19 0 23
15 7 25 -5 3 -10 15 -10 26 0 10 -4 19 -8 19 -4 0 -8 9 -8 20 0 24 18 26 36 5
28 -34 28 -11 0 45 -32 64 -36 90 -19 121 7 15 7 24 -1 34 -7 8 -10 19 -8 25
5 16 72 -44 104 -92 15 -24 50 -61 77 -83 28 -22 61 -60 74 -84 12 -24 26 -49
31 -55 5 -6 17 -39 27 -73 16 -54 17 -78 9 -175 -4 -62 -8 -155 -9 -206 0 -50
-1 -92 -1 -92 -1 0 -16 23 -34 50 -45 71 -61 67 -54 -12 6 -63 6 -63 -12 -38
-10 14 -26 33 -35 43 -17 18 -17 18 -22 0 -2 -10 -5 -35 -6 -55 -1 -21 -5 -48
-10 -60 -8 -21 -9 -20 -26 15 -19 41 -35 48 -35 17 0 -11 -4 -20 -10 -20 -5 0
-10 -5 -10 -10 0 -6 -9 -30 -20 -52 -11 -23 -20 -50 -20 -59 0 -10 -4 -20 -10
-24 -5 -3 -7 -11 -5 -18 7 -17 -13 -45 -22 -32 -5 6 -17 11 -27 10 -32 0 -29
21 8 59 45 45 47 80 6 131 -36 46 -42 66 -38 131 3 43 4 47 15 28 6 -11 14
-40 17 -65 2 -24 5 -48 6 -54 0 -5 7 1 15 15 11 19 13 43 9 98 -6 63 -4 72 11
72 15 0 16 12 12 118 -3 77 -10 130 -21 156 -9 21 -16 48 -16 60 -1 29 -18 48
-72 80 -31 18 -55 25 -68 21 -23 -7 -26 -20 -7 -29 10 -5 10 -7 0 -12 -19 -9
-15 -32 7 -44 24 -13 26 -30 4 -30 -14 0 -14 -3 -4 -15 10 -13 9 -15 -9 -15
-19 0 -21 -4 -17 -37 2 -21 8 -47 12 -58 5 -14 -5 -9 -32 17 -21 20 -43 38
-49 39 -22 4 -35 12 -35 22 0 5 -12 26 -27 46 -21 29 -22 32 -5 17 12 -11 22
-14 22 -8 0 6 -11 19 -24 30 -44 34 -67 122 -32 122 6 0 4 5 -4 10 -28 18 9
11 50 -10 48 -24 49 -24 45 -2 -2 9 -4 19 -4 22 -1 3 -5 -2 -11 -10 -5 -8 -12
-11 -17 -7 -11 12 19 27 42 21 17 -4 18 -3 5 6 -10 8 -11 13 -4 16 7 3 9 19 4
46 -7 35 -5 41 11 45 11 3 19 10 19 15 0 5 5 6 10 3 6 -3 18 7 27 23 9 16 29
34 45 40 18 7 28 17 28 31 0 12 6 21 15 21 12 0 14 -19 12 -109z m-652 89 c3
-5 2 -10 -4 -10 -5 0 -13 5 -16 10 -3 6 -2 10 4 10 5 0 13 -4 16 -10z m-2795
-34 c0 -3 -4 -8 -10 -11 -5 -3 -10 -1 -10 4 0 6 5 11 10 11 6 0 10 -2 10 -4z
m2740 -11 c7 -8 8 -15 2 -15 -5 0 -15 7 -22 15 -7 8 -8 15 -2 15 5 0 15 -7 22
-15z m40 -6 c0 -6 -4 -7 -10 -4 -5 3 -10 11 -10 16 0 6 5 7 10 4 6 -3 10 -11
10 -16z m55 -129 c3 -6 -1 -7 -9 -4 -18 7 -21 14 -7 14 6 0 13 -4 16 -10z
m201 -22 c5 4 1 -2 -9 -14 -19 -23 -23 -39 -5 -28 6 4 8 3 5 -3 -4 -6 0 -19 8
-29 16 -21 19 -34 7 -34 -4 0 -16 14 -25 30 -15 25 -22 28 -37 20 -13 -7 -24
-5 -41 9 -20 16 -21 21 -10 35 8 9 21 14 32 11 9 -3 23 1 31 9 11 13 15 13 24
1 6 -8 15 -11 20 -7z m-99 -99 c6 -6 9 -17 7 -24 -8 -19 -44 -6 -44 16 0 21
20 25 37 8z m46 -111 c10 -28 -7 -21 -26 11 -9 16 -17 32 -17 35 0 12 37 -28
43 -46z m-1659 17 c11 -17 14 -31 8 -41 -7 -13 -11 -11 -26 11 -10 15 -15 33
-12 41 7 19 11 18 30 -11z m1443 -67 c-3 -8 -6 -5 -6 6 -1 11 2 17 5 13 3 -3
4 -12 1 -19z m67 -40 c-9 -14 -23 2 -17 18 4 12 8 13 14 3 4 -7 5 -17 3 -21z
m-2594 -32 c0 -13 3 -31 6 -40 9 -23 -23 -32 -45 -11 -18 16 -18 18 -3 46 21
35 42 38 42 5z m3073 -11 c16 -33 16 -35 -4 -49 -30 -21 -50 -10 -42 23 3 14
11 29 17 34 8 5 6 10 -4 17 -13 9 -13 10 1 10 8 0 23 -16 32 -35z m-2436 -51
c-3 -3 -12 -4 -19 -1 -8 3 -5 6 6 6 11 1 17 -2 13 -5z m281 -63 c-13 -22 -29
-23 -36 -3 -2 7 7 16 20 21 29 11 32 8 16 -18z m-551 -28 c-3 -10 -5 -4 -5 12
0 17 2 24 5 18 2 -7 2 -21 0 -30z m2320 21 c3 -8 1 -20 -4 -25 -7 -7 -12 -2
-15 15 -6 28 9 36 19 10z m492 -131 l-2 -98 -7 75 c-7 68 -4 120 6 120 2 0 3
-44 3 -97z m-1886 40 c14 -27 13 -53 -2 -53 -10 0 -31 46 -31 65 0 24 18 17
33 -12z m1815 -72 c6 -1 12 -9 12 -18 1 -10 7 -35 14 -56 13 -36 13 -39 -10
-62 -30 -30 -32 -77 -4 -105 11 -11 25 -20 30 -20 6 0 10 -7 10 -15 0 -8 5
-15 10 -15 6 0 10 -30 10 -69 0 -39 -4 -73 -10 -76 -5 -3 -10 -15 -10 -25 0
-36 -19 -30 -41 12 -12 24 -25 45 -29 48 -4 3 -15 21 -25 40 -10 19 -21 37
-25 40 -4 3 -15 22 -24 43 -8 21 -20 36 -25 33 -13 -9 -41 39 -41 71 0 24 19
72 20 49 0 -5 6 -3 13 3 8 6 16 8 19 5 4 -3 9 14 13 38 10 59 30 89 58 84 12
-3 28 -5 35 -5z m-3157 -8 c2 -15 2 -59 0 -148 -3 -85 -3 -88 -16 -60 -9 19
-14 24 -15 13 0 -10 -4 -18 -10 -18 -5 0 -10 -9 -10 -20 0 -11 -5 -20 -11 -20
-6 0 -9 10 -8 23 2 12 0 28 -5 35 -9 14 11 82 25 82 5 0 9 11 9 24 0 14 5 28
11 32 8 4 7 9 -2 15 -10 6 -11 9 -1 9 6 0 12 9 12 20 0 18 19 30 21 13z m66
-33 c-6 -24 29 -81 54 -87 14 -4 19 -14 19 -42 -1 -33 -18 -71 -34 -71 -3 0
-6 9 -6 19 0 10 -7 21 -15 25 -9 3 -15 0 -15 -9 0 -8 -4 -15 -10 -15 -6 0 -10
42 -10 106 0 73 3 103 11 98 6 -3 9 -14 6 -24z m1091 1 c-5 -24 -38 -27 -38
-3 0 10 3 21 6 25 11 11 35 -5 32 -22z m843 20 c15 25 21 0 8 -30 -12 -26 -15
-28 -21 -13 -3 9 -7 26 -7 37 1 12 3 15 6 6 4 -11 7 -11 14 0z m-576 -51 c17
-33 20 -74 5 -65 -17 11 -42 66 -36 81 8 20 14 18 31 -16z m1773 -80 c-7 -11
-16 -20 -19 -20 -4 0 -5 9 -2 20 3 11 12 20 19 20 12 0 12 -4 2 -20z m42 10
c0 -5 -2 -10 -4 -10 -3 0 -8 5 -11 10 -3 6 -1 10 4 10 6 0 11 -4 11 -10z
m-3066 -72 c-4 -6 -3 -8 3 -5 5 3 32 -14 60 -38 28 -25 56 -45 62 -45 6 0 11
-6 11 -14 0 -7 16 -26 37 -42 20 -15 52 -45 72 -67 30 -33 35 -46 34 -81 -2
-22 -8 -53 -14 -68 -6 -15 -9 -34 -6 -42 4 -10 0 -12 -14 -9 -10 3 -19 9 -19
14 0 5 -20 -11 -45 -36 -25 -25 -50 -45 -54 -45 -5 0 -17 -20 -26 -45 -17 -42
-55 -90 -55 -67 0 6 5 14 10 17 6 4 8 11 5 16 -4 5 0 25 7 45 9 26 10 37 1 42
-7 4 -13 29 -14 55 -2 26 -6 47 -11 47 -4 0 -8 5 -8 12 0 20 35 -20 50 -57 8
-19 17 -35 21 -35 13 0 5 140 -7 148 -6 4 -17 25 -25 47 -19 56 -39 85 -57 85
-14 0 -13 2 2 13 17 13 13 47 -6 47 -5 0 -7 8 -4 18 3 9 -1 28 -9 42 -9 15
-15 19 -15 10 0 -12 -3 -12 -11 2 -10 19 8 61 23 52 5 -3 5 -10 2 -16z m2798
0 c-21 -21 -13 -32 8 -13 20 18 20 18 19 -28 -2 -43 -4 -46 -19 -32 -20 18
-30 10 -30 -21 0 -33 -30 -105 -41 -98 -5 3 -9 -1 -10 -8 -1 -7 -4 -2 -9 12
-5 18 -9 21 -13 10 -3 -8 -8 -24 -12 -35 -5 -13 -9 -15 -12 -7 -7 18 -23 4
-23 -19 0 -11 5 -17 10 -14 6 4 10 -5 10 -20 0 -14 -4 -24 -9 -21 -15 10 -41
-41 -42 -81 l-1 -38 -8 38 c-4 21 -5 49 -2 62 3 17 -1 27 -12 31 -9 3 -16 15
-16 25 0 12 -7 19 -17 18 -10 0 -13 -3 -6 -5 7 -3 9 -12 6 -20 -3 -8 2 -30 11
-48 20 -42 33 -109 17 -86 -6 8 -11 26 -11 40 0 20 -2 22 -10 10 -5 -8 -10
-10 -10 -5 0 6 -5 3 -10 -5 -8 -13 -11 -12 -25 5 -12 15 -18 17 -22 7 -3 -9
-9 -10 -18 -2 -10 8 -14 4 -20 -17 -3 -16 -13 -35 -22 -45 -13 -14 -13 -17 3
-26 15 -9 16 -13 5 -26 -7 -9 -9 -16 -3 -16 21 0 22 -34 1 -76 -11 -24 -24
-42 -28 -39 -5 2 -8 70 -9 149 0 138 1 146 20 152 12 3 24 1 28 -6 5 -9 9 -9
14 -1 4 6 2 11 -5 11 -6 0 0 11 15 25 15 14 32 23 37 19 5 -3 8 -2 7 3 -2 5
25 36 60 70 34 33 62 66 62 72 0 6 6 11 14 11 8 0 16 4 18 9 4 12 101 90 113
90 5 1 4 -4 -3 -11z m-1452 -46 c0 -8 -1 -13 -3 -11 -1 2 -9 12 -16 22 -12 15
-12 17 3 11 9 -3 16 -13 16 -22z m720 -12 c0 -5 -4 -10 -10 -10 -5 0 -10 5
-10 10 0 6 5 10 10 10 6 0 10 -4 10 -10z m1511 -9 c-7 -5 -11 -14 -7 -19 7
-12 -13 -102 -23 -102 -17 1 -41 30 -41 49 0 26 47 81 69 81 13 0 13 -2 2 -9z
m-3761 -108 c0 -10 -12 -36 -25 -58 -27 -43 -34 -28 -10 19 8 15 15 35 15 42
0 8 5 14 10 14 6 0 10 -8 10 -17z m3058 -35 c-3 -37 -16 -72 -42 -115 -20 -35
-41 -63 -46 -63 -13 0 7 50 29 75 21 24 51 102 51 133 0 12 3 22 6 22 4 0 4
-24 2 -52z m-2932 -30 c9 -29 30 -68 45 -86 29 -33 39 -67 18 -60 -25 8 -106
198 -86 198 3 0 13 -24 23 -52z m3009 10 c-7 -30 46 -93 63 -76 9 9 12 9 12 0
0 -6 -7 -15 -16 -20 -11 -6 -13 -11 -5 -16 17 -11 13 -26 -4 -19 -17 6 -42 48
-62 103 -16 45 -16 50 2 50 11 0 14 -7 10 -22z m-3124 -81 c-16 -16 -25 -1
-10 16 8 8 16 11 18 5 2 -5 -2 -15 -8 -21z m548 6 c20 -15 44 -38 54 -50 10
-12 35 -27 56 -33 67 -18 126 -55 125 -78 0 -12 4 -18 9 -15 6 3 17 -3 25 -13
14 -18 14 -18 9 4 -6 27 5 28 59 3 40 -18 124 -105 124 -128 0 -7 3 -13 8 -13
4 0 23 -14 42 -30 32 -27 35 -35 35 -83 1 -126 6 -182 15 -162 7 17 9 14 11
-15 4 -68 -9 -108 -56 -165 -44 -53 -56 -63 -74 -58 -12 3 -25 -4 -35 -18 -18
-26 -22 -18 -6 12 8 14 7 19 -2 19 -9 0 -9 3 2 10 30 19 2 19 -36 0 l-39 -20
39 34 c35 31 38 39 38 82 0 70 -33 143 -64 144 -5 0 -8 -6 -8 -14 0 -15 -28
-42 -35 -34 -3 2 4 22 15 43 11 22 19 44 17 50 -3 5 -18 -19 -36 -55 -17 -36
-29 -57 -27 -48 3 9 11 45 17 80 7 35 18 71 25 81 9 14 9 24 -2 46 -7 15 -13
44 -12 64 1 20 -4 42 -10 50 -6 7 -13 23 -15 34 -1 12 -18 34 -37 49 -19 16
-42 37 -50 47 -11 14 -23 17 -43 12 -15 -4 -27 -12 -28 -19 0 -6 -7 3 -14 19
-11 23 -14 25 -14 10 -1 -11 5 -32 12 -46 8 -15 13 -49 11 -82 -2 -31 1 -57 7
-57 5 0 9 -6 9 -14 0 -8 4 -17 9 -20 5 -4 7 3 4 14 -3 13 0 20 8 20 19 0 53
-115 41 -137 -8 -13 -22 -3 -81 53 -74 71 -124 150 -137 219 -6 35 -5 38 15
32 18 -4 21 -1 21 22 0 36 -29 78 -41 60 -5 -9 -9 12 -9 54 0 37 3 67 7 67 3
0 22 -12 42 -27z m2000 -205 c-1 -155 -2 -161 -14 -113 l-14 50 2 -51 c0 -27
-3 -56 -7 -63 -4 -7 -6 -15 -3 -17 4 -4 -21 -30 -88 -91 -23 -21 -26 26 -5 87
19 58 47 84 38 36 -7 -34 -2 -33 17 4 9 17 15 52 15 78 -1 26 2 57 5 70 6 18
3 22 -14 22 -17 0 -21 6 -21 32 l0 31 -23 -21 c-27 -26 -37 -28 -37 -7 0 8 -8
15 -17 15 -16 1 -15 3 3 18 12 9 37 26 55 37 18 11 42 26 54 32 11 7 28 13 38
13 15 0 17 -14 16 -162z m365 120 c-5 -13 -8 -36 -7 -53 1 -25 0 -27 -7 -10
-6 15 -9 5 -9 -33 -1 -33 3 -51 9 -47 6 3 10 -3 10 -14 0 -12 0 -23 0 -26 0
-3 -2 -5 -5 -5 -3 0 -5 3 -4 6 0 4 -4 10 -11 14 -25 15 -5 190 22 190 5 0 6
-10 2 -22z m-1228 -44 c-3 -8 1 -14 10 -14 8 0 12 -4 9 -10 -3 -5 -17 -10 -31
-10 -18 0 -24 5 -24 23 0 13 3 26 6 30 11 10 35 -5 30 -19z m-206 7 c0 -26
-14 -41 -39 -40 -16 1 -19 3 -9 6 9 2 20 13 23 24 6 19 25 27 25 10z m908 -48
c2 -9 -6 -13 -25 -13 -22 0 -25 -2 -13 -10 12 -8 13 -13 2 -27 -38 -54 -52
-106 -52 -191 1 -48 5 -105 9 -127 5 -22 12 -56 16 -75 6 -35 6 -35 -9 -10 -8
14 -15 19 -16 13 0 -7 -7 -13 -15 -13 -14 0 -19 12 -16 33 0 4 -9 7 -22 7 -16
0 -26 -9 -36 -32 -20 -48 -23 -59 -28 -105 -4 -36 -2 -43 21 -58 39 -26 31
-40 -9 -15 -41 25 -43 19 -14 -35 l21 -40 -21 19 c-12 11 -30 20 -41 21 -23 2
-78 74 -81 107 -4 50 1 70 16 64 12 -4 15 3 15 34 0 22 -4 40 -9 40 -9 0 -21
48 -27 115 -7 72 -4 87 21 111 18 16 25 19 25 9 0 -8 5 -15 10 -15 6 0 10 10
10 22 0 22 27 62 83 123 22 24 45 38 70 42 32 5 36 3 31 -11 -10 -27 22 -19
35 10 12 26 41 30 49 7z m-1182 -198 c4 -8 10 -13 14 -10 5 3 12 0 16 -6 5 -8
8 -8 14 0 3 7 15 -18 25 -54 19 -64 35 -85 35 -44 0 13 4 18 11 13 8 -5 10 1
5 19 -3 14 -2 28 3 32 15 8 24 -56 20 -137 -3 -60 -8 -77 -27 -96 -17 -17 -22
-30 -17 -45 7 -22 8 -32 5 -77 -1 -14 4 -58 10 -98 11 -65 11 -75 -4 -90 -15
-15 -16 -14 -16 11 0 15 -4 27 -8 27 -19 0 -46 -150 -47 -262 l0 -47 -22 27
c-13 15 -27 45 -33 67 -6 22 -17 62 -25 89 -9 29 -15 92 -16 160 0 61 -3 105
-6 99 -2 -7 -9 -13 -14 -13 -11 0 -1 55 17 96 12 28 12 69 0 82 -3 2 1 10 9
18 16 16 28 95 25 161 -4 71 -1 93 10 93 6 0 13 -7 16 -15z m501 -1 c4 -10 13
-14 27 -10 17 4 24 -1 35 -24 12 -29 31 -41 31 -19 0 5 5 7 10 4 6 -4 8 -15 5
-26 -4 -11 -2 -19 4 -19 6 0 11 -9 11 -20 0 -31 20 -24 26 9 4 16 15 39 25 50
11 11 19 24 19 29 0 6 10 17 23 25 23 15 24 14 35 -16 11 -31 7 -82 -8 -102
-4 -5 -10 -22 -14 -37 -7 -30 -26 -38 -26 -11 0 9 -3 13 -6 10 -9 -8 16 -159
27 -171 5 -6 9 -19 9 -29 0 -17 -2 -17 -20 4 l-19 24 0 -25 c-1 -14 8 -45 19
-69 20 -42 21 -43 39 -27 18 17 20 16 27 -6 12 -36 5 -178 -11 -228 -8 -25
-17 -61 -20 -81 -3 -20 -16 -48 -29 -62 l-24 -26 -4 61 c-1 33 2 78 8 99 7 22
8 36 3 33 -9 -5 -13 28 -9 73 3 41 -60 53 -70 13 l-6 -25 -8 24 c-6 18 -10 21
-17 10 -5 -8 -9 -23 -9 -34 -1 -20 -42 -75 -57 -75 -5 0 -16 -13 -26 -29 -22
-38 -23 -118 0 -143 15 -17 15 -20 -6 -42 -25 -26 -41 -76 -41 -126 0 -20 -7
-46 -17 -59 -9 -14 -16 -43 -16 -69 0 -44 -1 -44 -17 -25 -9 12 -24 56 -34 99
-9 44 -21 86 -25 94 -15 28 -24 103 -12 96 6 -4 11 -13 11 -19 0 -22 17 -38
42 -41 21 -2 24 0 20 17 -4 17 -2 19 14 13 16 -6 16 -4 -3 16 -20 21 -22 32
-19 93 4 72 13 108 25 101 17 -11 30 14 45 85 15 72 16 215 2 238 -4 5 -8 31
-11 58 -2 26 -11 75 -19 108 -16 60 -13 112 5 84 4 -7 11 -11 14 -7 5 5 12 62
14 126 1 25 19 30 28 6z m-287 -111 c0 -47 -2 -84 -4 -82 -7 7 -14 157 -8 164
11 11 12 3 12 -82z m-1469 46 c-5 -13 -10 -19 -10 -12 -1 15 10 45 15 40 3 -2
0 -15 -5 -28z m56 -56 c-2 -16 -4 -3 -4 27 0 30 2 43 4 28 2 -16 2 -40 0 -55z
m-79 -27 c-12 -44 -28 -62 -28 -31 0 17 32 87 37 81 2 -2 -2 -24 -9 -50z
m2655 -91 c37 -125 71 -263 83 -328 3 -21 9 -36 11 -33 3 3 14 -5 23 -17 l18
-22 7 28 c4 16 5 49 1 74 -5 38 -4 44 8 34 8 -6 19 -32 25 -57 10 -40 10 -48
-5 -58 -12 -10 -17 -34 -20 -116 -4 -118 -20 -210 -36 -210 -6 0 -27 12 -47
28 -19 15 -44 29 -56 32 -14 4 -22 18 -27 45 -3 22 -14 60 -24 85 -9 25 -18
70 -19 100 -2 46 2 62 24 95 46 69 46 69 12 49 -18 -10 -40 -32 -48 -49 -21
-40 -23 -42 -33 -25 -14 22 -12 197 2 223 6 12 11 37 9 55 -1 21 7 45 24 69
17 26 25 51 25 82 0 24 2 42 4 40 2 -2 20 -58 39 -124z m-1061 86 c7 -10 17
-19 21 -19 20 -2 45 -51 52 -102 4 -30 14 -59 21 -65 11 -8 12 -27 3 -105 -12
-116 -17 -132 -18 -60 -1 30 -4 72 -7 93 -6 34 -8 35 -20 20 -12 -16 -13 -12
-14 32 0 59 -23 150 -43 174 -19 21 -29 51 -17 51 5 0 15 -8 22 -19z m-1501
-81 c1 -14 1 -93 1 -176 -2 -141 -3 -152 -21 -157 -12 -3 -24 -20 -32 -47 -7
-23 -19 -44 -26 -47 -7 -3 -13 -14 -13 -26 0 -45 -76 -134 -97 -113 -13 13
-14 222 -2 260 9 28 10 41 3 43 -14 5 18 151 41 191 15 26 16 25 10 -33 -4
-43 -3 -56 4 -45 6 8 11 22 11 30 0 27 23 95 27 83 3 -7 11 -13 19 -13 8 0 14
-5 14 -11 0 -5 -4 -7 -10 -4 -5 3 -10 1 -10 -4 0 -6 3 -11 8 -11 17 1 27 17
27 47 -1 17 2 30 6 27 4 -2 11 10 14 28 8 35 22 23 26 -22z m3265 -385 c-8
-235 -23 -435 -40 -530 -8 -44 -17 -107 -20 -140 -3 -40 1 -26 12 40 17 97 18
100 44 100 14 0 29 3 32 6 6 6 28 108 43 197 3 17 9 32 14 32 12 0 12 -83 0
-95 -5 -6 -11 -77 -14 -160 -4 -119 -11 -168 -30 -235 -45 -152 -61 -186 -119
-249 -48 -52 -61 -61 -91 -61 -43 0 -49 8 -72 90 -13 49 -16 82 -11 141 5 49
3 79 -3 83 -7 4 -7 15 -1 31 5 13 11 45 14 72 12 126 33 199 95 335 33 71 37
98 21 114 -12 12 12 152 35 208 8 19 14 45 14 58 -2 30 17 143 30 188 6 19 11
61 11 92 0 32 4 58 10 58 6 0 11 15 11 33 1 17 6 -29 11 -103 5 -74 7 -211 4
-305z m-3326 405 c0 -5 -2 -10 -4 -10 -3 0 -8 5 -11 10 -3 6 -1 10 4 10 6 0
11 -4 11 -10z m1403 -77 c-7 -2 -19 -2 -25 0 -7 3 -2 5 12 5 14 0 19 -2 13 -5z
m614 -120 c-3 -10 -5 -4 -5 12 0 17 2 24 5 18 2 -7 2 -21 0 -30z m-1467 -53
c0 -27 -4 -50 -10 -50 -11 0 -14 83 -3 93 12 12 13 8 13 -43z m364 -35 c-6
-16 -24 -21 -24 -7 0 11 11 22 21 22 5 0 6 -7 3 -15z m1425 1 l24 -13 -26 -5
c-19 -4 -27 0 -30 14 -6 21 0 22 32 4z m-1610 -244 c-23 -39 -58 -89 -78 -112
l-36 -42 3 50 c3 42 7 51 26 56 12 3 44 33 70 67 26 33 50 59 52 56 3 -3 -14
-36 -37 -75z m764 -142 c4 -17 1 -20 -23 -18 -27 2 -27 3 -13 25 17 25 28 23
36 -7z m-96 -382 c-6 -65 -4 -79 18 -123 14 -27 25 -56 25 -63 0 -7 7 -26 15
-42 9 -18 11 -31 5 -35 -14 -9 -12 -47 3 -70 49 -75 62 -229 22 -258 -13 -10
-16 -21 -11 -40 7 -28 -16 -97 -32 -97 -32 0 -82 97 -82 161 0 24 -7 50 -15
59 -8 9 -18 45 -22 80 -5 51 -4 62 8 58 8 -3 19 -30 25 -64 9 -52 11 -26 16
201 5 236 11 305 26 305 2 0 2 -33 -1 -72z m1243 45 c0 -5 -17 -9 -38 -10 -28
-1 -32 1 -17 7 26 11 55 12 55 3z m-2130 -433 c0 -5 -10 -10 -22 -9 -22 0 -22
1 -3 9 11 5 21 9 23 9 1 1 2 -3 2 -9z"/>
<path d="M3580 8606 c0 -35 13 -55 25 -36 3 5 13 10 22 10 9 0 21 8 28 17 11
15 8 19 -24 30 -50 18 -51 17 -51 -21z"/>
<path d="M6518 8628 c-19 -6 -28 -17 -28 -31 0 -19 6 -22 37 -22 34 0 37 2 38
29 0 34 -9 38 -47 24z"/>
<path d="M3531 8522 c-25 -24 -29 -38 -35 -112 -8 -89 -20 -145 -42 -195 -8
-19 -9 -34 -3 -39 15 -16 10 -36 -10 -36 -26 0 -33 26 -22 83 5 27 5 50 0 53
-5 3 -9 -2 -9 -10 0 -9 -4 -16 -10 -16 -5 0 -10 -4 -10 -9 0 -12 -41 -83 -46
-79 -4 5 29 138 59 230 14 43 22 76 18 74 -8 -5 -73 -165 -125 -306 -62 -169
-133 -457 -161 -650 -8 -52 -17 -110 -21 -129 -12 -59 13 -26 27 35 7 32 15
50 20 43 4 -8 10 3 13 27 10 67 46 167 83 227 19 32 37 57 39 55 2 -2 -1 -21
-7 -42 -6 -21 -9 -40 -6 -42 4 -4 20 44 37 111 5 22 16 49 24 60 12 17 17 18
40 7 36 -16 97 -15 119 2 18 14 18 16 2 40 -24 36 -8 52 57 59 38 5 58 13 70
29 17 22 17 24 -12 51 -17 15 -36 27 -43 26 -6 0 -2 -5 11 -11 24 -12 31 -56
10 -63 -7 -2 -52 -16 -101 -30 -62 -20 -93 -35 -108 -54 -20 -25 -21 -25 -35
-7 -8 11 -14 25 -14 32 0 32 98 114 136 114 11 0 14 5 10 16 -10 26 16 134 32
134 10 0 12 7 8 23 -13 41 -11 52 7 51 13 -2 16 3 12 17 -4 12 -2 19 6 19 8 0
6 7 -6 20 -21 23 -14 67 14 87 15 10 17 20 11 60 -4 26 -5 53 -3 60 8 21 -7
15 -36 -15z"/>
<path d="M6650 8515 c0 -5 5 -17 10 -25 5 -8 10 -10 10 -5 0 6 -5 17 -10 25
-5 8 -10 11 -10 5z"/>
<path d="M3718 8235 c25 -42 27 -44 30 -21 4 34 -14 66 -38 66 -18 0 -18 -3 8
-45z"/>
<path d="M6410 8261 c-5 -11 -10 -28 -10 -38 1 -17 2 -16 16 2 30 39 36 55 20
55 -9 0 -20 -9 -26 -19z"/>
<path d="M4000 8221 c0 -5 7 -11 15 -15 8 -3 15 -1 15 3 0 5 -7 11 -15 15 -8
3 -15 1 -15 -3z"/>
<path d="M2759 8208 c0 -2 -2 -21 -5 -43 -3 -22 -7 -53 -9 -70 -26 -182 -33
-335 -30 -625 4 -322 12 -408 54 -615 12 -55 21 -104 21 -110 1 -5 7 2 15 16
12 22 12 31 0 65 -30 84 -14 308 31 430 14 38 32 92 39 120 8 29 25 71 38 95
25 45 32 97 21 161 -5 34 -7 36 -30 28 -23 -9 -24 -8 -24 33 0 57 -17 114 -37
126 -9 5 -24 28 -34 52 -14 35 -18 39 -18 19 0 -41 -13 -90 -22 -90 -5 0 -8
87 -6 205 2 113 2 205 0 205 -2 0 -3 -1 -4 -2z"/>
<path d="M4114 8079 c-10 -17 13 -36 27 -22 12 12 4 33 -11 33 -5 0 -12 -5
-16 -11z"/>
<path d="M4180 8060 c0 -5 5 -10 11 -10 5 0 7 5 4 10 -3 6 -8 10 -11 10 -2 0
-4 -4 -4 -10z"/>
<path d="M6656 7973 c-11 -11 -6 -23 9 -23 8 0 15 4 15 9 0 13 -16 22 -24 14z"/>
<path d="M6630 7880 c0 -5 7 -7 15 -4 8 4 15 8 15 10 0 2 -7 4 -15 4 -8 0 -15
-4 -15 -10z"/>
<path d="M4165 7720 c-18 -8 -17 -9 8 -9 16 -1 26 3 22 9 -3 6 -7 10 -8 9 -1
0 -11 -4 -22 -9z"/>
<path d="M3111 7303 c-1 -6 -4 -20 -7 -30 -5 -17 -5 -17 6 0 6 10 9 23 6 30
-3 9 -5 9 -5 0z"/>
<path d="M5481 7284 c-16 -36 -6 -42 18 -13 24 28 26 39 8 39 -8 0 -19 -12
-26 -26z"/>
<path d="M5428 7205 c-4 -33 -3 -34 14 -18 21 19 24 53 4 53 -8 0 -15 -14 -18
-35z"/>
<path d="M3743 7092 c-26 -4 -40 -32 -15 -32 20 1 57 26 45 32 -4 2 -18 2 -30
0z"/>
<path d="M6380 7090 c8 -5 11 -10 6 -10 -5 0 -3 -7 4 -15 10 -12 16 -13 24 -5
8 8 6 15 -8 26 -11 8 -25 14 -30 14 -6 0 -4 -5 4 -10z"/>
<path d="M5770 6920 c-12 -8 -10 -10 8 -10 13 0 20 4 17 10 -7 12 -6 12 -25 0z"/>
<path d="M4348 6913 c6 -2 18 -2 25 0 6 3 1 5 -13 5 -14 0 -19 -2 -12 -5z"/>
<path d="M4073 6803 c-7 -2 -13 -11 -13 -18 0 -8 -6 -20 -13 -27 -7 -7 -20
-26 -30 -41 -18 -27 -18 -29 -1 -41 16 -12 16 -14 -1 -24 -16 -8 -17 -13 -6
-26 11 -13 11 -16 -2 -16 -27 0 -30 -37 -7 -70 12 -17 17 -30 12 -30 -6 0 -12
4 -14 10 -2 6 -8 6 -18 0 -13 -8 -12 -10 3 -10 9 0 17 -4 17 -10 0 -5 11 -10
25 -10 21 0 25 -5 25 -30 0 -22 5 -30 18 -31 14 0 14 -2 -3 -9 -12 -4 -27 -15
-34 -24 -7 -9 -19 -16 -26 -16 -7 0 -15 -7 -18 -15 -5 -11 0 -13 24 -8 22 4
29 2 27 -8 -5 -23 33 -23 39 0 6 25 24 28 20 4 -5 -30 -17 -43 -43 -43 -13 0
-24 -4 -24 -8 0 -11 36 -53 47 -55 4 -1 7 -5 5 -9 -1 -5 2 -8 8 -8 9 0 11 -45
3 -62 -2 -3 -16 -3 -31 1 -28 9 -62 -6 -62 -26 0 -15 70 -44 91 -38 10 4 19
14 19 23 0 37 15 42 43 16 l27 -25 -22 -20 c-13 -10 -32 -26 -43 -34 -19 -14
-18 -14 16 -15 25 0 42 7 59 25 17 18 27 22 34 15 8 -8 6 -14 -4 -20 -9 -6
-10 -10 -3 -10 24 0 45 13 53 35 5 13 20 25 38 28 19 4 31 14 35 28 5 20 10
21 49 14 24 -4 67 -9 96 -11 52 -3 87 -18 77 -34 -10 -17 84 -83 120 -84 20
-1 23 -11 24 -76 0 -26 -6 -137 -11 -200 -2 -25 1 -35 12 -36 22 0 97 -41 107
-57 9 -16 59 -49 68 -47 15 4 15 -8 0 -20 -36 -29 -11 -83 60 -133 30 -21 66
-53 80 -71 23 -30 25 -40 19 -89 -6 -49 -11 -59 -51 -92 -71 -59 -122 -66
-231 -29 -54 18 -66 18 -58 -1 7 -20 0 -19 -34 5 -24 17 -29 18 -34 5 -3 -9 4
-21 18 -30 13 -9 26 -26 30 -38 3 -11 8 -18 12 -14 10 10 44 -12 44 -29 0 -8
14 -20 30 -26 17 -5 35 -19 40 -29 6 -10 20 -24 31 -30 15 -8 19 -8 15 0 -4 6
-4 11 1 11 4 0 18 -15 30 -34 16 -25 29 -33 52 -34 18 0 31 4 31 11 0 7 6 3
12 -8 18 -31 29 -35 51 -14 25 23 30 23 68 3 34 -17 59 -13 59 11 0 15 1 15
16 0 12 -12 19 -13 30 -4 11 9 14 8 14 -2 0 -7 14 6 31 29 17 23 33 42 35 42
3 0 2 -4 -1 -10 -10 -17 13 -11 30 8 8 9 34 35 56 58 29 29 43 53 49 82 9 49
-2 53 -66 26 -61 -26 -131 -14 -190 31 -60 46 -63 51 -66 113 -3 62 14 88 90
143 31 23 63 49 70 57 17 22 15 67 -3 82 -17 14 -10 34 10 26 7 -2 28 10 47
28 42 41 78 63 109 68 29 4 40 26 26 53 -9 18 -15 73 -20 195 -3 62 10 95 30
79 9 -8 21 -5 45 12 40 27 68 55 68 67 0 14 47 32 83 32 18 0 50 5 71 10 32 7
44 5 61 -8 12 -9 23 -21 26 -27 2 -5 10 -9 17 -9 6 1 12 -7 12 -17 0 -15 7
-19 33 -19 18 0 38 5 44 11 8 8 14 2 24 -20 9 -20 23 -33 42 -37 36 -8 47 3
16 15 l-24 10 28 0 c15 1 27 -3 27 -8 0 -5 7 -12 16 -15 34 -13 6 17 -36 40
-25 13 -41 24 -36 24 5 0 3 7 -5 16 -11 13 -9 14 17 8 56 -14 74 -23 68 -37
-3 -10 4 -16 21 -19 31 -6 42 7 18 22 -15 9 -13 10 10 5 18 -3 26 -2 23 4 -4
5 -2 12 4 16 15 9 12 55 -4 61 -8 3 -23 1 -33 -5 -14 -7 -27 -5 -51 11 -38 24
-42 43 -7 34 16 -4 25 -2 25 5 0 6 8 19 19 28 10 9 22 35 26 59 6 36 10 42 31
42 13 0 24 3 24 8 0 8 -49 32 -67 32 -7 0 -13 5 -13 10 0 6 5 10 11 10 6 0 3
7 -5 16 -9 8 -16 21 -16 27 0 8 3 8 9 -1 6 -10 15 -5 35 20 14 18 31 38 36 45
14 17 13 37 -6 93 -11 33 -13 54 -6 66 7 13 3 23 -19 43 -15 15 -33 40 -39 55
-9 26 -12 27 -57 21 -81 -11 -103 -16 -98 -25 3 -4 -13 -3 -36 3 -32 8 -54 6
-101 -7 -43 -12 -63 -14 -68 -6 -4 7 -16 3 -35 -11 -26 -21 -29 -21 -40 -6
-18 25 -42 21 -96 -14 -33 -21 -55 -28 -69 -24 -11 3 -20 3 -20 -2 0 -4 -19
-17 -41 -28 -46 -21 -108 -100 -134 -170 -15 -37 -16 -60 -7 -171 9 -123 12
-139 25 -174 3 -8 8 -24 12 -35 16 -41 22 -121 12 -155 -9 -32 -10 -33 -23
-15 -10 14 -17 16 -25 8 -8 -8 -4 -39 15 -115 l26 -103 -21 -17 c-12 -10 -29
-18 -39 -18 -10 0 -20 -6 -23 -14 -8 -20 -74 12 -123 59 -40 39 -44 38 -107
-19 -47 -42 -80 -52 -110 -31 -12 8 -30 15 -39 15 -22 0 -43 47 -29 64 14 17
41 138 41 182 l0 39 -25 -30 -24 -30 -3 45 c-4 85 11 169 40 214 3 6 8 73 9
148 l3 137 -34 59 c-53 89 -124 152 -173 152 -13 0 -45 14 -73 31 -49 30 -51
30 -76 14 -24 -16 -64 -13 -64 5 0 5 -13 7 -28 4 -16 -3 -44 1 -63 9 -32 13
-96 14 -127 2 -7 -3 -21 2 -29 11 -10 10 -28 14 -49 12 -18 -2 -30 0 -28 4 6
9 -33 10 -53 1z m555 -361 c3 -9 -2 -13 -14 -10 -9 1 -19 9 -22 16 -3 9 2 13
14 10 9 -1 19 -9 22 -16z m919 1 c-9 -9 -19 -14 -23 -11 -10 10 6 28 24 28 15
0 15 -1 -1 -17z m30 -139 c-3 -3 -12 -4 -19 -1 -8 3 -5 6 6 6 11 1 17 -2 13
-5z m-1457 -13 c0 -10 -26 -9 -36 2 -4 4 2 7 14 7 12 0 22 -4 22 -9z m1946
-136 c14 -13 11 -15 -20 -15 -34 0 -44 8 -29 23 11 12 34 8 49 -8z m-1072
-552 c-23 -17 -44 -17 -44 1 0 16 27 25 49 18 11 -4 10 -8 -5 -19z m-64 -3 c0
-5 -4 -10 -10 -10 -5 0 -10 5 -10 10 0 6 5 10 10 10 6 0 10 -4 10 -10z m218
-428 c113 -43 131 -56 95 -68 -10 -3 -28 -11 -40 -16 -13 -7 -37 -8 -60 -3
-47 10 -97 10 -143 1 -24 -5 -47 -2 -74 9 -34 14 -37 18 -25 31 22 21 129 62
166 63 18 1 54 -7 81 -17z"/>
<path d="M7319 6143 c-13 -16 -12 -17 4 -4 9 7 17 15 17 17 0 8 -8 3 -21 -13z"/>
<path d="M4400 6124 c0 -8 5 -12 10 -9 6 3 10 10 10 16 0 5 -4 9 -10 9 -5 0
-10 -7 -10 -16z"/>
<path d="M4030 6090 c0 -5 7 -10 15 -10 8 0 15 5 15 10 0 6 -7 10 -15 10 -8 0
-15 -4 -15 -10z"/>
<path d="M5470 5716 c0 -2 7 -9 15 -16 9 -7 15 -8 15 -2 0 5 -7 12 -15 16 -8
3 -15 4 -15 2z"/>
<path d="M2876 5413 c-4 -9 -4 -18 -1 -21 3 -3 5 0 5 6 0 6 8 12 18 14 15 3
16 4 0 10 -10 4 -19 1 -22 -9z"/>
<path d="M3976 5229 c4 -7 0 -9 -12 -5 -11 3 -25 2 -32 -3 -11 -6 -8 -14 12
-34 15 -15 26 -29 26 -32 -3 -14 26 -65 35 -62 5 2 10 32 10 67 0 56 -2 64
-23 71 -16 6 -21 5 -16 -2z"/>
<path d="M6130 5205 c0 -28 8 -30 45 -13 30 13 34 33 5 25 -11 -3 -23 -1 -26
4 -10 18 -24 9 -24 -16z"/>
<path d="M4067 5186 c-17 -18 -30 -117 -17 -130 6 -6 10 -22 10 -37 0 -17 10
-34 29 -48 17 -14 27 -29 24 -37 -4 -10 0 -12 11 -8 12 5 16 0 17 -17 0 -16 3
-19 6 -9 4 8 13 21 21 29 12 12 15 12 23 0 5 -8 6 -26 3 -41 -4 -21 -2 -28 10
-28 9 0 16 -6 16 -12 1 -19 29 34 30 54 0 12 6 15 22 10 18 -4 20 -2 15 19 -4
13 -7 33 -7 44 0 20 -53 85 -70 85 -4 0 -18 -16 -30 -35 -12 -20 -27 -34 -34
-32 -6 2 -14 38 -17 86 -5 65 -11 86 -27 101 -18 17 -23 18 -35 6z m153 -306
c0 -5 -2 -10 -4 -10 -3 0 -8 5 -11 10 -3 6 -1 10 4 10 6 0 11 -4 11 -10z"/>
<path d="M6031 5171 c-17 -24 -21 -44 -21 -118 l-1 -88 -22 27 c-12 15 -30 37
-39 50 l-17 23 -35 -38 c-27 -28 -36 -47 -36 -73 0 -34 -13 -46 -24 -21 -5 10
-7 10 -12 0 -3 -7 -11 -13 -18 -13 -13 0 -33 -53 -39 -100 -3 -26 -6 -27 -44
-15 -21 6 -23 3 -23 -34 0 -33 4 -41 18 -41 21 1 52 23 52 39 0 15 20 14 20
-1 1 -18 40 31 40 49 0 8 5 11 10 8 10 -6 14 19 10 64 -1 18 2 22 14 18 9 -4
16 -1 16 6 0 7 7 4 14 -6 14 -18 14 -17 21 2 3 12 11 21 16 21 5 0 9 9 9 20 0
25 10 25 36 2 21 -20 44 -18 44 4 0 8 13 25 29 40 16 14 32 40 37 57 11 45 11
97 0 97 -5 0 -6 3 -3 6 8 8 -11 44 -23 44 -5 0 -18 -13 -29 -29z"/>
<path d="M5451 5153 c0 -6 -4 -20 -7 -30 -5 -14 -4 -15 5 -7 7 7 11 20 8 30
-3 11 -5 14 -6 7z"/>
<path d="M4300 4919 c-13 -23 10 -126 35 -162 l14 -21 10 25 c8 20 10 21 10 5
1 -11 11 -30 23 -43 18 -19 22 -34 20 -77 -1 -39 3 -56 13 -60 8 -3 15 -12 15
-21 0 -8 5 -15 10 -15 6 0 10 -6 10 -13 0 -7 6 -22 14 -33 15 -19 15 -19 30 1
10 14 14 16 14 5 -2 -38 3 -50 22 -50 11 0 30 -11 42 -25 12 -14 27 -25 34
-25 7 0 14 -5 16 -12 8 -23 30 4 24 28 -8 30 2 30 35 1 32 -27 48 -57 63 -116
7 -31 17 -47 30 -49 16 -3 18 2 15 41 l-4 45 28 -14 c15 -8 27 -21 27 -28 0
-7 7 -19 16 -27 10 -8 14 -26 12 -52 -2 -32 1 -41 15 -43 9 -1 24 -9 33 -18
21 -22 26 -20 56 12 30 31 48 88 38 117 -4 11 -11 46 -14 78 -8 58 -8 59 -29
40 -20 -18 -20 -17 -13 2 6 18 5 18 -8 5 -8 -8 -18 -30 -23 -48 l-8 -33 -23
21 c-12 11 -22 31 -22 43 -1 12 -11 42 -23 67 -18 37 -27 45 -49 45 -16 -1
-28 2 -28 6 0 4 -12 12 -28 18 -15 6 -43 35 -62 64 -33 50 -76 97 -90 97 -13
0 -38 -26 -61 -65 -49 -84 -57 -81 -38 19 11 63 10 69 -24 71 -18 1 -23 8 -25
36 -4 54 -10 63 -27 49 -8 -7 -15 -9 -15 -5 0 4 -6 2 -14 -4 -12 -10 -17 -6
-25 26 -6 21 -11 45 -11 54 0 8 -11 25 -25 37 -24 21 -25 21 -35 1z"/>
<path d="M5636 4712 c-3 -4 -1 -26 4 -48 5 -21 10 -52 10 -68 l0 -29 -20 23
c-11 12 -28 40 -37 61 -10 21 -24 41 -31 43 -21 9 -57 -11 -77 -40 -10 -16
-29 -40 -42 -54 -13 -14 -23 -29 -23 -35 -1 -12 -69 -45 -93 -45 -25 0 -60
-78 -72 -160 0 -3 -8 -16 -17 -30 -8 -14 -20 -34 -26 -44 -9 -19 -10 -18 -21
3 -10 17 -9 22 4 27 20 8 19 34 -2 49 -15 11 -20 6 -44 -50 -14 -35 -41 -84
-58 -110 -29 -43 -33 -65 -11 -65 4 0 25 17 45 39 25 26 43 37 56 34 10 -3 19
-9 19 -14 0 -23 30 -5 47 29 10 20 24 36 31 34 6 -1 12 2 12 8 0 6 5 10 10 10
6 0 10 -8 10 -18 0 -13 8 -18 28 -17 21 0 29 6 37 31 6 17 16 38 23 47 8 9 15
22 16 29 1 7 7 22 13 32 10 18 12 18 44 2 30 -15 35 -15 45 -1 6 8 14 15 17
15 3 0 18 11 33 25 15 14 34 24 43 23 10 -2 15 3 13 14 -1 9 2 19 8 23 5 3 10
1 10 -4 0 -6 7 -11 16 -11 10 0 14 5 10 16 -3 8 2 27 12 42 29 44 54 131 35
119 -5 -3 -9 7 -10 21 -2 36 -51 69 -67 44z"/>
<path d="M3580 4665 c-7 -9 -10 -18 -7 -22 8 -7 37 15 37 28 0 14 -16 11 -30
-6z"/>
<path d="M3490 4479 c0 -5 5 -7 10 -4 6 3 10 8 10 11 0 2 -4 4 -10 4 -5 0 -10
-5 -10 -11z"/>
<path d="M3740 4470 c0 -11 5 -20 10 -20 6 0 10 9 10 20 0 11 -4 20 -10 20 -5
0 -10 -9 -10 -20z"/>
<path d="M3867 4452 c-10 -10 -17 -21 -17 -24 0 -11 38 -48 49 -48 6 0 11 -5
11 -12 0 -6 7 -3 15 8 20 26 19 58 -3 77 -24 22 -35 21 -55 -1z"/>
<path d="M4015 4400 c-3 -6 -17 -7 -29 -4 -19 4 -25 0 -36 -26 -9 -22 -10 -34
-2 -39 6 -3 13 -18 17 -33 4 -15 12 -26 18 -25 16 3 21 -41 7 -58 -17 -21 -2
-39 18 -23 12 10 14 10 8 1 -5 -9 1 -13 19 -13 15 0 24 4 20 10 -3 6 0 10 8
10 21 0 28 -12 16 -26 -18 -22 -7 -59 19 -58 21 1 21 0 6 -24 -10 -15 -11 -21
-3 -17 7 5 33 9 58 11 25 1 62 5 82 8 30 5 44 0 78 -25 39 -28 45 -29 76 -18
46 17 62 79 20 79 -21 0 -110 50 -108 61 6 18 -17 8 -51 -24 -22 -22 -39 -30
-45 -24 -15 15 -2 35 19 30 28 -8 34 16 6 27 -25 9 -51 47 -72 105 -11 33 -98
105 -126 105 -9 0 -20 -5 -23 -10z m17 -42 c-7 -7 -12 -8 -12 -2 0 6 3 14 7
17 3 4 9 5 12 2 2 -3 -1 -11 -7 -17z m63 -37 c-3 -6 -11 -11 -17 -11 -6 0 -6
6 2 15 14 17 26 13 15 -4z m-35 5 c0 -3 -4 -8 -10 -11 -5 -3 -10 -1 -10 4 0 6
5 11 10 11 6 0 10 -2 10 -4z m145 -206 c-3 -5 -10 -10 -16 -10 -5 0 -9 5 -9
10 0 6 7 10 16 10 8 0 12 -4 9 -10z"/>
<path d="M3742 4314 c-11 -12 -11 -18 -2 -29 16 -19 40 -19 40 0 0 8 -4 15 -9
15 -5 0 -11 6 -13 14 -3 12 -5 12 -16 0z"/>
<path d="M5447 4292 c-6 -30 0 -45 14 -37 12 8 12 52 0 59 -5 3 -11 -7 -14
-22z"/>
<path d="M3725 4250 c-4 -12 -5 -24 -2 -27 3 -2 8 5 12 17 4 12 5 24 2 27 -3
2 -8 -5 -12 -17z"/>
<path d="M6245 4260 c3 -5 8 -10 11 -10 2 0 4 5 4 10 0 6 -5 10 -11 10 -5 0
-7 -4 -4 -10z"/>
<path d="M3925 4240 c-3 -5 -1 -10 4 -10 6 0 11 5 11 10 0 6 -2 10 -4 10 -3 0
-8 -4 -11 -10z"/>
<path d="M6190 4234 c0 -17 22 -14 28 4 2 7 -3 12 -12 12 -9 0 -16 -7 -16 -16z"/>
<path d="M5461 4224 c0 -11 3 -14 6 -6 3 7 2 16 -1 19 -3 4 -6 -2 -5 -13z"/>
<path d="M5880 4186 c0 -8 7 -16 15 -20 17 -6 18 -4 9 18 -8 20 -24 21 -24 2z"/>
<path d="M4600 4140 c0 -5 7 -10 16 -10 8 0 12 5 9 10 -3 6 -10 10 -16 10 -5
0 -9 -4 -9 -10z"/>
<path d="M5540 4140 c0 -5 15 -10 33 -9 27 0 29 2 12 9 -28 12 -45 12 -45 0z"/>
<path d="M5488 4133 c7 -3 16 -2 19 1 4 3 -2 6 -13 5 -11 0 -14 -3 -6 -6z"/>
<path d="M3980 4071 c0 -5 -3 -18 -7 -28 -6 -17 -5 -17 15 1 26 22 28 36 7 36
-8 0 -15 -4 -15 -9z"/>
<path d="M4923 4073 c26 -2 68 -2 95 0 26 2 4 3 -48 3 -52 0 -74 -1 -47 -3z"/>
<path d="M4378 3990 c-21 -21 -38 -44 -38 -52 0 -7 21 9 45 35 25 26 45 50 45
52 0 13 -18 0 -52 -35z"/>
<path d="M6125 4000 c16 -16 31 -28 33 -25 7 7 -39 55 -52 55 -5 0 3 -13 19
-30z"/>
<path d="M5747 4003 c-4 -6 5 -21 18 -33 29 -27 33 -13 7 21 -11 13 -21 18
-25 12z"/>
<path d="M6126 3707 c3 -10 9 -15 12 -12 3 3 0 11 -7 18 -10 9 -11 8 -5 -6z"/>
<path d="M6220 3566 c0 -9 5 -16 10 -16 6 0 10 4 10 9 0 6 -4 13 -10 16 -5 3
-10 -1 -10 -9z"/>
<path d="M4262 3500 c0 -19 2 -27 5 -17 2 9 2 25 0 35 -3 9 -5 1 -5 -18z"/>
<path d="M4076 3444 c-6 -24 -10 -26 -44 -21 l-37 6 23 -19 c16 -13 35 -18 60
-16 20 2 36 7 35 10 -1 3 -4 20 -8 36 -8 37 -21 39 -29 4z"/>
<path d="M6088 3403 c7 -3 16 -2 19 1 4 3 -2 6 -13 5 -11 0 -14 -3 -6 -6z"/>
<path d="M3953 3281 c4 -29 17 -39 17 -13 0 11 -5 24 -10 27 -6 4 -9 -2 -7
-14z"/>
<path d="M4050 3256 c0 -32 32 -94 54 -104 20 -9 22 -8 19 22 -2 17 -4 43 -4
59 -1 15 -7 27 -13 27 -6 0 -21 3 -33 6 -17 5 -23 2 -23 -10z"/>
<path d="M8071 6618 c0 -9 -4 -25 -7 -35 -5 -17 -5 -17 6 0 6 10 9 25 7 35 -4
15 -5 15 -6 0z"/>
<path d="M5910 1943 c51 -96 65 -112 40 -46 -10 28 -17 59 -14 69 4 15 -4 24
-31 37 l-37 18 42 -78z"/>
<path d="M6482 4520 c0 -14 2 -19 5 -12 2 6 2 18 0 25 -3 6 -5 1 -5 -13z"/>
<path d="M3370 4157 c0 -18 -46 -61 -58 -53 -9 5 -38 -102 -29 -110 3 -3 15
10 28 28 33 47 45 58 64 58 8 0 20 11 25 25 5 14 14 25 20 25 5 0 10 5 10 11
0 8 -4 8 -14 0 -11 -10 -16 -8 -21 8 -7 23 -25 28 -25 8z"/>
<path d="M3166 3561 c-4 -7 -5 -15 -2 -18 9 -9 19 4 14 18 -4 11 -6 11 -12 0z"/>
<path d="M6867 4276 c-6 -15 19 -43 29 -33 8 8 -5 47 -16 47 -4 0 -10 -6 -13
-14z"/>
<path d="M6580 3947 c0 -2 15 -14 33 -27 20 -15 27 -17 18 -6 -13 16 -51 41
-51 33z"/>
<path d="M3748 3098 c7 -28 22 -32 22 -5 0 13 -6 24 -14 24 -8 0 -11 -8 -8
-19z"/>
<path d="M6158 2993 c7 -3 16 -2 19 1 4 3 -2 6 -13 5 -11 0 -14 -3 -6 -6z"/>
<path d="M4551 2554 c0 -11 3 -14 6 -6 3 7 2 16 -1 19 -3 4 -6 -2 -5 -13z"/>
<path d="M5570 2565 c0 -15 4 -24 10 -20 6 3 10 12 10 20 0 8 -4 17 -10 20 -6
4 -10 -5 -10 -20z"/>
<path d="M4731 2444 c0 -11 3 -14 6 -6 3 7 2 16 -1 19 -3 4 -6 -2 -5 -13z"/>
<path d="M4680 2419 c0 -5 5 -7 10 -4 6 3 10 8 10 11 0 2 -4 4 -10 4 -5 0 -10
-5 -10 -11z"/>
<path d="M5195 2304 c0 -29 3 -47 7 -41 4 7 8 -8 9 -33 0 -34 2 -40 9 -25 5
11 9 14 9 8 1 -7 6 -13 11 -13 11 0 13 37 4 103 -5 36 -11 46 -28 49 -19 4
-21 0 -21 -48z"/>
</g>
</svg>
